<?xml version="1.0" encoding="UTF-8"?>
<svg version="1.1" xmlns="http://www.w3.org/2000/svg" width="2770" height="2068">
<path d="M0 0 C914.1 0 1828.2 0 2770 0 C2770 682.44 2770 1364.88 2770 2068 C1855.9 2068 941.8 2068 0 2068 C0 1385.56 0 703.12 0 0 Z " fill="#FEFEFE" transform="translate(0,0)"/>
<path d="M0 0 C563.64 0 1127.28 0 1708 0 C1708 682.44 1708 1364.88 1708 2068 C1144.36 2068 580.72 2068 0 2068 C0 2067.67 0 2067.34 0 2067 C0.85005615 2066.97494385 1.7001123 2066.9498877 2.57592773 2066.92407227 C23.77675902 2066.29136153 44.84947054 2065.44087886 65.96240234 2063.3046875 C69.24106777 2062.9758196 72.52086075 2062.65984263 75.80078125 2062.34375 C122.10157156 2057.80915276 168.32503584 2050.06643973 213.4765625 2038.86425781 C216.87540175 2038.03056249 220.27930772 2037.22419204 223.6875 2036.4296875 C234.87485221 2033.81766627 245.92249127 2030.98803517 256.89355469 2027.57641602 C260.1032964 2026.58042871 263.31722365 2025.60331491 266.54101562 2024.65380859 C279.18863433 2020.92814042 291.70722719 2016.87618246 304.1875 2012.625 C305.19690643 2012.28129364 306.20631287 2011.93758728 307.24630737 2011.58346558 C369.60065057 1990.28077745 430.52258676 1963.28330013 487.23095703 1929.6328125 C490.6236308 1927.63226567 494.04013817 1925.67556191 497.45996094 1923.72192383 C532.01665396 1903.93681845 565.10742505 1881.09073969 596.64111328 1856.81542969 C598.71486067 1855.21944691 600.79187968 1853.62791154 602.87109375 1852.0390625 C609.31551824 1847.10962047 615.69490063 1842.10652617 622 1837 C622.84820313 1836.31550781 623.69640625 1835.63101562 624.5703125 1834.92578125 C630.93873602 1829.75491842 637.18563801 1824.4532563 643.3984375 1819.09765625 C645.74782976 1817.07255881 648.1067514 1815.0597527 650.4765625 1813.05859375 C658.51397886 1806.25656856 666.25037612 1799.18501207 673.90258789 1791.95385742 C675.4126327 1790.5471657 676.93708957 1789.15588779 678.47045898 1787.7746582 C687.37646646 1779.73692659 695.85799453 1771.29420219 704.32885742 1762.80151367 C706.82161995 1760.30336032 709.31972475 1757.81063802 711.81835938 1755.31835938 C713.42740428 1753.70865409 715.03613918 1752.09863885 716.64453125 1750.48828125 C717.38008743 1749.7547493 718.11564362 1749.02121735 718.87348938 1748.26545715 C722.88258276 1744.23834925 726.72801 1740.12444818 730.42756653 1735.81054688 C733.14663416 1732.67973117 736.02287769 1729.69658313 738.875 1726.6875 C743.79493773 1721.4605134 748.45374682 1716.14137138 752.93359375 1710.53125 C755.00112782 1707.99861847 757.16113341 1705.5926884 759.375 1703.1875 C763.4369798 1698.72991869 767.15488971 1694.0683659 770.84765625 1689.30664062 C773.78028518 1685.53088087 776.78564952 1681.83764019 779.875 1678.1875 C820.76369861 1629.4306291 855.19871432 1574.06889637 885 1518 C885.48645996 1517.09024414 885.97291992 1516.18048828 886.47412109 1515.24316406 C921.80546117 1449.0730723 949.84162253 1378.44041651 969.20556641 1305.94384766 C970.02489085 1302.90776462 970.87480064 1299.88149594 971.73046875 1296.85546875 C976.62241036 1279.39389864 980.41892639 1261.76642776 984 1244 C984.22397461 1242.89785156 984.44794922 1241.79570313 984.67871094 1240.66015625 C986.20212754 1233.12150188 987.62127369 1225.56634817 989 1218 C989.13019531 1217.29224426 989.26039063 1216.58448853 989.39453125 1215.85528564 C993.17727567 1195.28606047 996.47660508 1174.71730085 998.875 1153.9375 C998.9783667 1153.04765411 999.0817334 1152.15780823 999.18823242 1151.24099731 C1000.3311657 1141.29726994 1001.25630329 1131.38258322 1001.75830078 1121.38500977 C1002 1118 1002 1118 1002.4934082 1115.09960938 C1003.13717129 1111.16071 1003.34376189 1107.26057341 1003.53515625 1103.27734375 C1003.5998259 1101.97441879 1003.5998259 1101.97441879 1003.665802 1100.64517212 C1003.80516557 1097.74289328 1003.93544745 1094.84034322 1004.0625 1091.9375 C1004.10702301 1090.92734833 1004.15154602 1089.91719666 1004.19741821 1088.87643433 C1005.40316694 1060.59397221 1005.27145322 1032.30079498 1005 1004 C1004.9926886 1003.11977173 1004.9853772 1002.23954346 1004.97784424 1001.3326416 C1004.30165891 922.07072493 992.58334465 838.21230018 969.27734375 762.2578125 C968.33256622 759.16328128 967.46456727 756.05544248 966.62890625 752.9296875 C946.13192129 676.58056947 914.88516488 601.81274562 876 533 C875.43490723 531.9987207 874.86981445 530.99744141 874.28759766 529.96582031 C854.98670199 495.88939502 834.05548093 462.67560763 811 431 C810.46536133 430.26249512 809.93072266 429.52499023 809.37988281 428.76513672 C798.04170641 413.15175151 786.30283259 397.86592271 774 383 C772.56231259 381.22931882 771.12481798 379.45848108 769.6875 377.6875 C765.23851929 372.24985691 760.67753073 366.91422756 756.08984375 361.59375 C754.08853441 359.27215595 752.1016574 356.93965113 750.12890625 354.59375 C742.69637826 345.78116694 734.86868105 337.3920164 726.92578125 329.0390625 C725.19502728 327.20649947 723.4829526 325.3595046 721.78125 323.5 C713.94531357 314.95048592 705.81558503 306.70784188 697.625 298.5 C696.7784787 297.64959641 696.7784787 297.64959641 695.91485596 296.78201294 C690.31099167 291.15786769 684.72033221 285.55909104 678.64794922 280.43359375 C676.84531178 278.86543271 675.17251511 277.20555306 673.5 275.5 C670.51127663 272.46405075 667.38293521 269.65491341 664.15625 266.875 C661.80037042 264.82640906 659.4949254 262.72796998 657.1875 260.625 C652.91689849 256.76977614 648.51226331 253.12417485 644.0390625 249.5078125 C640.52941389 246.61167573 637.10995408 243.62304174 633.6875 240.625 C627.25756255 235.01360998 620.65817597 229.6824081 613.90136719 224.47167969 C611.85647509 222.8889101 609.8221568 221.29320476 607.7890625 219.6953125 C567.73011042 188.26083796 525.20654906 160.24256062 481 135 C479.95005859 134.39881348 478.90011719 133.79762695 477.81835938 133.17822266 C406.24131947 92.39570489 329.54264629 61.22863114 250.28564453 38.93457031 C247.44077767 38.12537501 244.60740129 37.28890166 241.77734375 36.4296875 C182.12372743 18.44699008 117.77593797 7.9418947 55.63598633 4.23364258 C53 4 53 4 50.34594727 3.50878906 C45.61993638 2.79014574 40.90584248 2.64955286 36.1328125 2.46484375 C34.58072586 2.40037804 34.58072586 2.40037804 32.99728394 2.33460999 C29.70665511 2.19873696 26.41584399 2.06804707 23.125 1.9375 C20.88800681 1.8460455 18.65102743 1.75425243 16.4140625 1.66210938 C10.9428623 1.43748357 5.47150341 1.21710795 0 1 C0 0.67 0 0.34 0 0 Z " fill="#FEFEFE" transform="translate(1062,0)"/>
<path d="M0 0 C0.33 0 0.66 0 1 0 C1.08040527 1.19149658 1.16081055 2.38299316 1.24365234 3.6105957 C1.35772237 5.29899258 1.47181976 6.9873876 1.5859375 8.67578125 C1.64692123 9.57840195 1.70790497 10.48102264 1.77073669 11.41099548 C2.11043318 16.43079983 2.45280948 21.4504043 2.79956055 26.46972656 C2.94060348 28.51236903 3.08163544 30.55501225 3.22265625 32.59765625 C3.29230087 33.60561249 3.3619455 34.61356873 3.43370056 35.65206909 C3.79078899 40.84890118 4.1298768 46.04581042 4.43359375 51.24609375 C5.34285787 66.11238471 7.10160767 80.84900758 8.9375 95.625 C9.06492584 96.65661255 9.19235168 97.6882251 9.32363892 98.75109863 C10.7845737 110.50275267 12.41805864 122.18241964 14.59597778 133.82318115 C15.03195596 136.17217455 15.45367414 138.52343148 15.87280273 140.87548828 C19.89868747 163.44687951 24.29109909 185.78676643 30 208 C30.55422458 210.21600872 31.10300498 212.43329398 31.65087891 214.65087891 C32.11027034 216.50311111 32.57842941 218.35316193 33.046875 220.203125 C33.75999985 223.04393382 34.45651998 225.88658899 35.140625 228.734375 C37.74493098 239.49605623 40.77806651 250.03184611 44.21704102 260.55517578 C45.08115176 263.25339997 45.89937015 265.96364057 46.71875 268.67578125 C55.79023081 298.23470751 66.14756368 327.44365119 78 356 C78.49951172 357.2055957 78.99902344 358.41119141 79.51367188 359.65332031 C95.279814 397.4900112 112.81515495 435.05710248 133.52783203 470.46582031 C135.02018873 473.03475274 136.48097075 475.61935351 137.93359375 478.2109375 C149.18377674 498.24956485 161.58283563 517.50427945 174.3125 536.625 C174.81833618 537.38563751 175.32417236 538.14627502 175.84533691 538.92996216 C182.38554773 548.75262592 189.07173221 558.44705591 196 568 C196.61593018 568.85094238 197.23186035 569.70188477 197.86645508 570.57861328 C209.12796355 586.07279971 220.78750891 601.24323993 233 616 C234.43768741 617.77068118 235.87518202 619.54151892 237.3125 621.3125 C244.97425334 630.67240809 252.87077823 639.82849584 261 648.78515625 C262.79603529 650.77412502 264.55953303 652.78563194 266.3125 654.8125 C270.85669298 660.02068465 275.56063442 665.08136556 280.26953125 670.14013672 C281.43766122 671.39561275 282.60429357 672.65248364 283.76953125 673.91064453 C292.01838447 682.81083921 300.43152515 691.53170208 309 700.125 C309.87197021 701.0015625 310.74394043 701.878125 311.64233398 702.78125 C316.05093233 707.17927617 320.51441272 711.44007109 325.25976562 715.47412109 C327.08884042 717.07789739 328.79723084 718.76339425 330.5 720.5 C333.44600215 723.49234375 336.52983007 726.25324172 339.7109375 728.9921875 C341.93534248 730.94328675 344.11097598 732.94108908 346.27978516 734.95361328 C351.38566541 739.68862998 356.60327266 744.19516191 362.03125 748.5625 C365.52282645 751.42926803 368.91509547 754.39793318 372.3125 757.375 C378.74233009 762.98650283 385.34183309 768.31759888 392.09863281 773.52832031 C394.14352491 775.1110899 396.1778432 776.70679524 398.2109375 778.3046875 C440.31957778 811.34756336 485.14888817 841.11517754 532 867 C532.86947266 867.48355957 533.73894531 867.96711914 534.63476562 868.46533203 C561.23264631 883.24803844 588.24143006 896.88708698 616.08575439 909.15551758 C617.90740329 909.95915033 619.72695367 910.76753496 621.54638672 911.57617188 C659.18152122 928.26431859 698.13917176 943.09259106 737.76025391 954.35986328 C740.05674719 955.01621878 742.34685488 955.6919978 744.63671875 956.37109375 C773.47025938 964.85753047 802.63243587 971.69928181 832.09020996 977.61517334 C834.63710042 978.12837706 837.18160332 978.65309668 839.7265625 979.17578125 C868.17552958 984.90816294 896.99698039 988.80472074 925.85229492 991.7769165 C928.10720202 992.01113514 930.36117792 992.25334652 932.61523438 992.49560547 C945.80650356 993.89004301 959.0123583 994.80026394 972.25 995.625 C974.37502099 995.76008691 976.50002114 995.89550196 978.625 996.03125 C983.74976887 996.35793195 988.87479506 996.6802354 994 997 C994 997.33 994 997.66 994 998 C665.98 998 337.96 998 0 998 C0 668.66 0 339.32 0 0 Z " fill="#FEFEFE" transform="translate(0,1070)"/>
<path d="M0 0 C330 0 660 0 1000 0 C1000 0.33 1000 0.66 1000 1 C999.01870117 1.03963867 998.03740234 1.07927734 997.02636719 1.12011719 C935.50187232 3.66376555 874.07664661 10.15992234 814 24 C811.85158836 24.4896968 809.70314977 24.97927536 807.5546875 25.46875 C802.06220288 26.72454305 796.57424927 27.9989848 791.08789062 29.28125 C788.19051292 29.95565544 785.2909673 30.61973215 782.390625 31.28125 C772.0585761 33.65952425 761.92041688 36.42465243 751.7890625 39.546875 C748.13689616 40.6686014 744.47143647 41.7039221 740.78051758 42.68945312 C663.07301118 63.50088841 586.39191683 97.38012109 517.41357422 138.57080078 C514.30353437 140.41241248 511.15594822 142.1757762 508 143.9375 C463.88028469 169.11075131 421.9679206 199.34724871 382.75585938 231.56005859 C381.19064408 232.84365701 379.619183 234.11963072 378.046875 235.39453125 C367.57865098 243.88848495 357.37210643 252.66580791 347.4375 261.77734375 C345.35727275 263.67421764 343.25443102 265.53392943 341.125 267.375 C332.52605613 274.86383432 324.2569115 282.67180003 316.24609375 290.78515625 C314.30456129 292.69967608 312.32843842 294.48794121 310.25 296.25 C301.78338132 303.5095651 293.83916736 311.63584511 286.63671875 320.14453125 C284.68099912 322.36163584 282.6044411 324.42375912 280.5 326.5 C277.17230537 329.78854528 274.04663559 333.16381624 271.00390625 336.71484375 C268.94345569 339.06448035 266.82585256 341.34977202 264.69287109 343.63330078 C259.72367954 348.95533434 254.97516278 354.37013817 250.4140625 360.05078125 C247.49327952 363.61905172 244.47072803 367.08983669 241.4375 370.5625 C236.47144673 376.26184373 231.65822175 382.04478318 227 388 C226.21882812 388.98484375 225.43765625 389.9696875 224.6328125 390.984375 C211.95646182 406.9829529 199.59779338 423.20053849 188 440 C187.49436523 440.72832031 186.98873047 441.45664062 186.46777344 442.20703125 C161.758927 477.81729158 139.31392588 514.71302266 119 553 C118.16734619 554.56258545 118.16734619 554.56258545 117.31787109 556.15673828 C86.64619109 613.87057242 60.88168836 675.45572115 43.5 738.5 C41.70097108 744.98394047 39.90375034 751.45887086 37.875 757.875 C32.65704827 774.62968889 28.9830453 791.75115485 25.31324768 808.89598083 C24.36001785 813.34531365 23.38443169 817.78911134 22.39453125 822.23046875 C16.06095151 850.81613269 11.88784943 879.64570418 8.29034424 908.68011475 C8.013444 910.89258083 7.72880877 913.10388157 7.44091797 915.31494141 C3.70599223 944.10150537 2.36563377 973.01885556 1 1002 C0.67 1002 0.34 1002 0 1002 C0 671.34 0 340.68 0 0 Z " fill="#FEFEFE" transform="translate(0,0)"/>
<path d="M0 0 C123.42 0 246.84 0 374 0 C374.061875 65.030625 374.061875 65.030625 374.125 131.375 C374.14320801 145.04599121 374.16141602 158.71698242 374.18017578 172.80224609 C374.18920898 189.54223633 374.18920898 189.54223633 374.19088745 197.3878479 C374.19274493 202.84790807 374.20004891 208.30792818 374.21115112 213.76797485 C374.22396377 220.07863993 374.22965291 226.38926561 374.2268899 232.69994376 C374.22569515 235.92185652 374.22861456 239.14366466 374.23843026 242.36556506 C374.27819284 256.06164386 373.92602772 269.4301753 372 283 C371.79338588 284.52117463 371.79338588 284.52117463 371.58259773 286.07308006 C368.67115842 306.83426213 361.06690118 326.69104402 351 345 C350.35781909 346.20819845 349.71589192 347.41653181 349.07421875 348.625 C337.93932248 369.20955641 321.33332358 387.62317787 303 402 C302.46938965 402.42297363 301.9387793 402.84594727 301.39208984 403.28173828 C284.44051788 416.70650656 265.42518975 426.1030209 245 433 C244.28602051 433.24830566 243.57204102 433.49661133 242.83642578 433.75244141 C215.24847926 443.22861537 182.84893588 445.73738298 154.23388672 439.48730469 C151.85110874 438.96752055 149.46034023 438.50456257 147.06640625 438.0390625 C120.31037576 432.53763286 95.62612139 420.52181945 74 404 C73.11699219 403.34128906 72.23398437 402.68257812 71.32421875 402.00390625 C57.57581162 391.30142847 44.89748323 378.3441786 35 364 C34.62617187 363.45988281 34.25234375 362.91976563 33.8671875 362.36328125 C7.5454736 323.95506607 -0.55442945 281.95414543 -0.34057617 236.01928711 C-0.33965437 233.38299694 -0.33993015 230.74673134 -0.34167194 228.11044407 C-0.34324649 221.83447758 -0.32959735 215.55864321 -0.31016796 209.28271038 C-0.28831221 202.00068584 -0.28616991 194.71870508 -0.28381348 187.43664551 C-0.26815131 168.27024318 -0.22626753 149.10386952 -0.1875 129.9375 C-0.125625 87.058125 -0.06375 44.17875 0 0 Z " fill="#141819" transform="translate(848,403)"/>
<path d="M0 0 C0.92821564 0.03911499 1.85643127 0.07822998 2.81277466 0.11853027 C15.13034802 0.65665588 27.37146586 1.64034964 39.63607788 2.89208984 C42.78972646 3.21124763 45.94562201 3.50526316 49.1015625 3.80078125 C92.72590429 8.03244861 136.22846004 15.30165186 178.9375 25.125 C180.51917969 25.48392334 180.51917969 25.48392334 182.1328125 25.85009766 C196.48652187 29.12202745 210.6278917 32.9135427 224.72216797 37.16113281 C228.09313396 38.17165474 231.46975497 39.16136103 234.84765625 40.1484375 C279.63678289 53.30324367 323.26529121 69.19537782 365.9375 88.125 C367.06027344 88.6214502 368.18304687 89.11790039 369.33984375 89.62939453 C397.64015262 102.21848434 425.69501903 115.99258185 452.42236328 131.66015625 C455.01767259 133.17169341 457.6287165 134.65203783 460.24609375 136.125 C479.59713032 147.02294132 498.20805306 158.88341242 516.6875 171.1875 C517.51239929 171.73617737 518.33729858 172.28485474 519.18719482 172.85015869 C534.30717865 182.9184943 549.29951279 193.15110523 563.6875 204.25 C564.57526123 204.93102783 565.46302246 205.61205566 566.37768555 206.3137207 C568.12113358 207.6516714 569.86361872 208.99087807 571.60498047 210.33154297 C573.59795573 211.86392692 575.59570448 213.38953566 577.59765625 214.91015625 C589.11943103 223.69069093 600.34026572 232.84661585 611.35986328 242.24853516 C614.6324863 245.03782942 617.95445383 247.75205218 621.3125 250.4375 C627.30205756 255.30456361 632.87015253 260.59410384 638.48046875 265.88671875 C641.66474029 268.88584826 644.93355836 271.76923984 648.25 274.62109375 C650.63709934 276.74848552 652.85393766 279.02998513 655.09204102 281.31201172 C656.74571681 282.93659122 658.43926681 284.42221014 660.21484375 285.91015625 C666.42433329 291.31114083 672.16684167 297.20564073 677.97387695 303.03100586 C679.99514268 305.0576298 682.02169574 307.07885547 684.04882812 309.09960938 C695.79006474 320.8354242 695.79006474 320.8354242 700.58959961 326.56274414 C702.12410986 328.34128627 703.76080871 329.98059946 705.4375 331.625 C708.45163582 334.59235323 711.23667333 337.69845292 713.99609375 340.90234375 C716.22554061 343.45476883 718.51751382 345.94387514 720.8125 348.4375 C724.88290056 352.90022832 728.73926909 357.48758 732.53125 362.1875 C735.23529387 365.48854057 738.01879525 368.71248645 740.8125 371.9375 C745.77562702 377.68618053 750.51115024 383.57998994 755.16796875 389.578125 C757.49681593 392.57530753 759.87442833 395.52960988 762.26513672 398.47753906 C818.4022065 467.8504783 863.94807238 548.08289187 945.07885742 764.65893555 C946.16185386 769.16948165 947.36167839 773.63202134 948.63946533 778.09173584 C951.85586535 789.37804222 954.40068959 800.76795698 956.8125 812.25 C957.02749146 813.26867157 957.24248291 814.28734314 957.46398926 815.33688354 C970.44804578 877.02791181 979.41308966 939.99061806 979.9375 1003.125 C979.94738953 1004.15604858 979.95727905 1005.18709717 979.96746826 1006.24938965 C980.23328093 1034.5348959 980.24577306 1062.79801982 979 1091.0625 C978.95652435 1092.05581329 978.91304871 1093.04912659 978.86825562 1094.07254028 C978.74314708 1096.8495191 978.61045945 1099.62596817 978.47265625 1102.40234375 C978.41475418 1103.60738052 978.41475418 1103.60738052 978.35568237 1104.83676147 C978.13248511 1109.00459195 977.67034411 1113.00949023 976.9375 1117.125 C976.78237577 1118.74270099 976.65064727 1120.3628247 976.54296875 1121.984375 C971.82847336 1188.6155256 959.8622367 1256.3206261 939.9375 1320.125 C939.34478654 1322.05763085 938.75210932 1323.99027292 938.16017151 1325.92314148 C916.00882964 1398.13962882 888.22018567 1468.90271753 850.43847656 1534.48583984 C848.55360952 1537.79999285 846.74317272 1541.15106807 844.93652344 1544.50830078 C833.71763616 1565.28788537 820.82160094 1584.98135291 807.75 1604.625 C807.16316437 1605.50843079 806.57632874 1606.39186157 805.97171021 1607.30206299 C792.08797198 1628.17436098 777.29512205 1648.31647443 761.9375 1668.125 C761.49647949 1668.69508789 761.05545898 1669.26517578 760.60107422 1669.85253906 C754.75688625 1677.39628007 748.76121803 1684.77629793 742.5625 1692.03125 C740.09834036 1694.9205132 737.70089 1697.86018458 735.3125 1700.8125 C731.68681653 1705.26691113 727.91320347 1709.55448601 724.046875 1713.80078125 C722.19123343 1715.84542335 720.36993624 1717.91284149 718.5625 1720 C714.78254302 1724.33608859 710.89552312 1728.57196322 706.99560547 1732.79980469 C705.12817132 1734.82647411 703.27123486 1736.86096274 701.42163086 1738.90405273 C692.96484117 1748.1931698 684.12906919 1757.0861196 675.23632812 1765.95654297 C672.67461354 1768.5128593 670.11833894 1771.07452929 667.5625 1773.63671875 C665.91177914 1775.28677933 664.2607484 1776.93652998 662.609375 1778.5859375 C661.85710632 1779.34023041 661.10483765 1780.09452332 660.32977295 1780.87167358 C656.25116256 1784.93246375 652.08911946 1788.83279117 647.7202301 1792.5803833 C644.77400585 1795.13309006 641.96009423 1797.82539053 639.125 1800.5 C634.10061299 1805.20653274 628.94766609 1809.65358064 623.5703125 1813.95703125 C620.82780846 1816.21532463 618.2281241 1818.58281334 615.625 1821 C610.98860514 1825.26654 606.16520177 1829.17619842 601.18676758 1833.02783203 C597.48542807 1835.89432445 593.87725084 1838.83817418 590.3125 1841.875 C582.58994784 1848.36194381 574.4591263 1854.30612384 566.36376953 1860.31591797 C564.20038021 1861.9289905 562.04821498 1863.5551457 559.90234375 1865.19140625 C541.22048326 1879.41730773 521.71839087 1892.48554858 501.9375 1905.125 C500.97231445 1905.7422998 500.00712891 1906.35959961 499.01269531 1906.99560547 C476.5396784 1921.32000938 453.4665712 1934.61440177 429.9375 1947.125 C428.87289551 1947.69154297 427.80829102 1948.25808594 426.71142578 1948.84179688 C377.59198894 1974.8673981 326.65585459 1995.77825804 274.25 2014.1875 C273.36096985 2014.50137665 272.4719397 2014.8152533 271.55596924 2015.13864136 C260.42394056 2019.05966077 249.26319768 2022.57332281 237.85687256 2025.60681152 C234.89319183 2026.40694029 231.94713536 2027.26626964 229 2028.125 C222.05180765 2030.11702762 215.06947451 2031.96307266 208.07421875 2033.78125 C204.63311657 2034.67623928 201.19956995 2035.59479091 197.76953125 2036.53125 C169.84793069 2044.09176341 141.44131812 2049.32066028 112.9375 2054.125 C111.81972168 2054.31690918 110.70194336 2054.50881836 109.55029297 2054.70654297 C84.26882397 2059.0397248 58.86395895 2062.08296526 33.26953125 2063.73046875 C29.43202929 2063.9862368 25.72618362 2064.44962596 21.9375 2065.125 C-4.93623696 2067.47604382 -32.16225767 2067.36491293 -59.125 2067.375 C-59.85608475 2067.37558914 -60.58716949 2067.37617828 -61.34040833 2067.37678528 C-86.81372677 2067.39115927 -112.11648168 2066.62046213 -137.50018311 2064.35284424 C-140.06877959 2064.12444161 -142.63800684 2063.90484354 -145.20751953 2063.68701172 C-169.93377973 2061.56957199 -194.44325954 2058.29510782 -218.95684814 2054.45379639 C-220.84938747 2054.15827741 -222.74275989 2053.8681055 -224.63623047 2053.57861328 C-262.74097166 2047.74413946 -301.08776466 2039.31672637 -337.96435547 2028.06835938 C-340.35994556 2027.33892201 -342.75728894 2026.61693795 -345.15673828 2025.90039062 C-391.62958426 2012.00998163 -437.0023243 1995.4837122 -481.0625 1975.125 C-482.38666979 1974.51600682 -483.71089073 1973.90712485 -485.03515625 1973.29833984 C-513.02342684 1960.41102227 -540.40701126 1946.6103878 -567.0625 1931.125 C-568.41601562 1930.34092773 -568.41601562 1930.34092773 -569.796875 1929.54101562 C-595.25472132 1914.75728058 -619.81931814 1898.80378271 -644.0625 1882.125 C-645.39547119 1881.20992676 -645.39547119 1881.20992676 -646.75537109 1880.27636719 C-658.02177064 1872.51870736 -668.89271868 1864.26200566 -679.72998047 1855.91845703 C-681.72295573 1854.38607308 -683.72070448 1852.86046434 -685.72265625 1851.33984375 C-698.26927738 1841.77829233 -710.44856497 1831.75934969 -722.43847656 1821.51074219 C-724.12964221 1820.06770908 -725.82624619 1818.63125183 -727.5234375 1817.1953125 C-734.52234612 1811.25678595 -741.34795876 1805.16800243 -748.0625 1798.91015625 C-750.61618129 1796.53095507 -753.20546862 1794.19578638 -755.8125 1791.875 C-767.41363987 1781.44512906 -778.64371605 1770.64070811 -789.6875 1759.625 C-790.61143555 1758.70565674 -791.53537109 1757.78631348 -792.48730469 1756.83911133 C-797.03192984 1752.28412357 -801.42818287 1747.67002462 -805.61865234 1742.78710938 C-807.34374545 1740.80123959 -809.17052989 1738.95172976 -811.0625 1737.125 C-814.23339998 1733.99654036 -817.1881996 1730.75644648 -820.08984375 1727.37890625 C-822.02708906 1725.16545963 -824.01334932 1723.00313509 -826.01416016 1720.84716797 C-830.77060378 1715.71869376 -835.30357436 1710.47889246 -839.69140625 1705.02734375 C-842.38081054 1701.73537112 -845.15417086 1698.52492018 -847.9375 1695.3125 C-852.90068672 1689.56387465 -857.63615329 1683.67000613 -862.29296875 1677.671875 C-864.14622561 1675.28676827 -866.02332153 1672.92417008 -867.92578125 1670.578125 C-873.46377625 1663.74885417 -878.84387449 1656.82719498 -884.0625 1649.75 C-884.58303955 1649.04464111 -885.1035791 1648.33928223 -885.63989258 1647.61254883 C-895.77585401 1633.77261968 -905.50169999 1619.65815216 -915 1605.375 C-915.5219696 1604.59096802 -916.04393921 1603.80693604 -916.58172607 1602.99914551 C-924.65855856 1590.85723599 -932.60349766 1578.65907313 -940.0625 1566.125 C-940.8676001 1564.77631836 -940.8676001 1564.77631836 -941.68896484 1563.40039062 C-945.88440595 1556.34886406 -949.99487853 1549.25093451 -954.0625 1542.125 C-954.97225586 1540.53413574 -954.97225586 1540.53413574 -955.90039062 1538.91113281 C-986.32113282 1485.44389116 -1010.9600086 1429.3042823 -1031.29888916 1371.29864502 C-1032.0607621 1369.12994698 -1032.82729212 1366.96294925 -1033.59521484 1364.79638672 C-1039.14987165 1349.11109978 -1044.31791896 1333.43253704 -1048.47900391 1317.30957031 C-1049.28824577 1314.27982295 -1050.23013111 1311.29831714 -1051.1875 1308.3125 C-1053.09581501 1302.2563598 -1054.53575439 1296.13817595 -1055.9375 1289.94921875 C-1056.72198254 1286.51619747 -1057.56671299 1283.10058579 -1058.4294281 1279.68641663 C-1060.76393263 1270.44712775 -1062.93100467 1261.1771829 -1065 1251.875 C-1065.25904114 1250.71212463 -1065.25904114 1250.71212463 -1065.52331543 1249.52575684 C-1068.56373247 1235.82533676 -1071.21538394 1222.09250119 -1073.53320312 1208.24951172 C-1074.02773952 1205.33019589 -1074.54801377 1202.41693965 -1075.078125 1199.50390625 C-1081.67139703 1162.70122411 -1084.58680653 1125.3917518 -1087.0625 1088.125 C-1087.14522156 1086.93741089 -1087.14522156 1086.93741089 -1087.22961426 1085.72583008 C-1088.33581908 1069.62936746 -1088.30808101 1053.50198732 -1088.3125 1037.375 C-1088.31294186 1036.63405846 -1088.31338371 1035.89311691 -1088.31383896 1035.1297226 C-1088.33976739 951.82154559 -1079.27375964 869.0091067 -1059.0625 788.125 C-1058.67680041 786.56908052 -1058.29134323 785.01310091 -1057.90625 783.45703125 C-1057.28101399 780.93711284 -1056.64838015 778.41943965 -1056.01171875 775.90234375 C-1055.31409879 773.12621822 -1054.62988841 770.34851178 -1053.95703125 767.56640625 C-1051.67132448 758.1715967 -1049.19169915 748.84969128 -1046.5 739.5625 C-1046.21922607 738.58796875 -1045.93845215 737.6134375 -1045.64916992 736.609375 C-1044.29607253 732.00027647 -1042.84966676 727.46982295 -1041.16015625 722.97265625 C-1039.44316002 718.35956641 -1038.03083271 713.7045116 -1036.67578125 708.9765625 C-1034.19198091 700.36027931 -1031.31252216 691.92604971 -1028.25 683.5 C-1027.83923218 682.36496536 -1027.83923218 682.36496536 -1027.42016602 681.20700073 C-1005.52027201 620.86904384 -978.0651066 562.19172522 -945.0625 507.125 C-944.48258301 506.15481934 -943.90266602 505.18463867 -943.30517578 504.18505859 C-921.65802255 468.05073467 -897.78339872 433.4696964 -872.0625 400.125 C-871.53350098 399.43857422 -871.00450195 398.75214844 -870.45947266 398.04492188 C-864.71046127 390.60345343 -858.77941503 383.348819 -852.671875 376.19921875 C-850.29980965 373.41766912 -847.98757288 370.59151339 -845.6875 367.75 C-836.68975702 356.71533482 -827.22961895 346.10699355 -817.52099609 335.69677734 C-815.55600403 333.57916453 -813.61222226 331.44259124 -811.66748047 329.30639648 C-807.75555438 325.01109355 -803.78808622 320.80431358 -799.640625 316.734375 C-798.02927454 315.09111661 -796.54893681 313.38169804 -795.0625 311.625 C-787.44931157 302.80336896 -778.98888239 294.43547927 -770.08203125 286.92578125 C-767.29287619 284.4387397 -764.68819685 281.78265341 -762.0625 279.125 C-758.22096268 275.24128715 -754.33877262 271.49945248 -750.17578125 267.95703125 C-748.00573672 266.07579117 -745.89723649 264.13512787 -743.79248047 262.18139648 C-738.58526863 257.34918961 -733.25162799 252.76502985 -727.71484375 248.30859375 C-725.06982363 246.13102932 -722.53037475 243.87181237 -720 241.5625 C-716.0912974 238.00857792 -712.07648717 234.6647784 -707.92578125 231.3984375 C-705.77908107 229.69396341 -703.65552479 227.97242989 -701.54296875 226.2265625 C-692.09257703 218.43080101 -682.37519462 211.08646299 -672.46826172 203.88232422 C-670.11648604 202.1644349 -667.77695373 200.43127743 -665.44140625 198.69140625 C-590.9873756 143.26670646 -507.86819913 97.70052646 -387.0625 53.125 C-385.91974609 52.72925781 -384.77699219 52.33351562 -383.59960938 51.92578125 C-372.89438846 48.24093873 -362.12134608 44.84950249 -351.23339844 41.74755859 C-349.00900281 41.10965836 -346.78952236 40.45647847 -344.5703125 39.80078125 C-310.49050023 29.80412914 -275.98120354 21.7480699 -241.03137207 15.47851562 C-239.16738162 15.14383174 -237.30388994 14.80637343 -235.44042969 14.46875 C-200.67189911 8.22349051 -165.47574909 3.65339323 -130.22723389 1.27215576 C-128.04452899 1.12377835 -125.86237406 0.96862196 -123.68017578 0.81298828 C-82.59892847 -2.05854338 -41.12541756 -1.76089554 0 0 Z M-210.21142578 30.51318359 C-212.74779111 30.91613348 -215.28521839 31.31246338 -217.82373047 31.70166016 C-252.01404366 36.94402459 -286.60952742 43.72322259 -319.70996094 53.84057617 C-324.09421466 55.15686727 -328.51541309 56.29808604 -332.94921875 57.43359375 C-342.3904404 59.88976399 -351.70449074 62.66884046 -361 65.625 C-361.8072049 65.88099976 -362.61440979 66.13699951 -363.44607544 66.40075684 C-428.43038997 87.07007009 -492.7334264 114.10083871 -551.59277344 148.68505859 C-554.13372388 150.16652614 -556.6920538 151.61274964 -559.2578125 153.05078125 C-610.34473556 181.72857045 -658.91996484 216.24571394 -703.48144531 254.24487305 C-706.79985382 257.07233468 -710.16456664 259.83140494 -713.5625 262.5625 C-718.94823414 266.94184878 -724.01066799 271.62544838 -729.08203125 276.359375 C-731.32848689 278.45410924 -733.60723428 280.49829669 -735.9375 282.5 C-748.81404495 293.68062709 -760.86224159 305.76544568 -772.89941406 317.83154297 C-775.58283856 320.52037958 -778.27163792 323.20375956 -780.9609375 325.88671875 C-782.69302943 327.61947075 -784.42481154 329.35253253 -786.15625 331.0859375 C-787.34389954 332.27055069 -787.34389954 332.27055069 -788.55554199 333.47909546 C-792.70561632 337.6465683 -796.7030666 341.88891933 -800.53079224 346.35517883 C-803.07787205 349.29821789 -805.76709311 352.10683599 -808.4375 354.9375 C-813.16446376 359.98410944 -817.63759143 365.15834148 -821.9609375 370.55859375 C-824.04251427 373.10059363 -826.2128838 375.52029335 -828.4375 377.9375 C-832.50122779 382.39699954 -836.22133977 387.06023727 -839.91455078 391.82495117 C-842.79981486 395.54121528 -845.76108266 399.16724133 -848.8125 402.75 C-855.25858256 410.43022178 -861.18807648 418.49725134 -867.15429688 426.55224609 C-868.9657266 428.9945243 -870.78632921 431.42966789 -872.609375 433.86328125 C-881.45309592 445.71020058 -889.85409679 457.83049413 -898.0625 470.125 C-898.67206543 471.03733398 -899.28163086 471.94966797 -899.90966797 472.88964844 C-915.3049877 496.01742202 -929.6676228 519.78517887 -943.0625 544.125 C-943.89080322 545.62716064 -943.89080322 545.62716064 -944.73583984 547.15966797 C-979.60750388 610.61238237 -1008.79807781 678.23176578 -1028.0625 748.125 C-1028.55961451 749.90388024 -1029.05672934 751.6827604 -1029.55384827 753.4616394 C-1044.50555992 807.06143324 -1055.40176413 861.13323453 -1061.63769531 916.43066406 C-1062.02375513 919.7880532 -1062.43877447 923.13998775 -1062.8671875 926.4921875 C-1063.72564826 933.35823943 -1064.43600259 940.2341321 -1065.0625 947.125 C-1065.1303772 947.86901062 -1065.19825439 948.61302124 -1065.26818848 949.37957764 C-1067.7024777 976.56572526 -1068.3561223 1003.71934812 -1068.37302017 1030.99798584 C-1068.37496041 1033.38872217 -1068.38005895 1035.77943563 -1068.3855896 1038.17016602 C-1068.43367564 1066.16112212 -1067.60411384 1094.15581218 -1064.30453491 1121.97406006 C-1063.95876145 1125.04691408 -1063.68435033 1128.12505994 -1063.40678406 1131.20471191 C-1062.30484514 1143.38361537 -1060.84661006 1155.50205464 -1059.25 1167.625 C-1059.11866669 1168.62657135 -1058.98733337 1169.6281427 -1058.85202026 1170.6600647 C-1056.6697171 1187.23231478 -1054.19213608 1203.70164997 -1051.0625 1220.125 C-1050.81145987 1221.46170882 -1050.56065473 1222.79846178 -1050.31005859 1224.13525391 C-1044.67865003 1254.0500812 -1037.96796908 1283.7917146 -1029.03979492 1312.90820312 C-1028.27528266 1315.42461921 -1027.52462626 1317.94377206 -1026.7824707 1320.46679688 C-1023.01254331 1333.24290415 -1018.91817984 1345.89056855 -1014.625 1358.5 C-1014.28101166 1359.51158173 -1013.93702332 1360.52316345 -1013.58261108 1361.56539917 C-1006.71911769 1381.68512735 -999.20600878 1401.49042811 -991.0625 1421.125 C-990.65445129 1422.11098175 -990.65445129 1422.11098175 -990.23815918 1423.11688232 C-974.27622336 1461.61438811 -955.88420299 1499.03106457 -935.0625 1535.125 C-934.41120117 1536.25744141 -933.75990234 1537.38988281 -933.08886719 1538.55664062 C-915.06704769 1569.85582941 -895.41122148 1599.98781987 -874.0625 1629.125 C-872.88410904 1630.74088137 -871.70572375 1632.35676688 -870.52734375 1633.97265625 C-861.42490999 1646.4223009 -852.03533495 1658.5875181 -842.23046875 1670.4921875 C-840.78935627 1672.24229526 -839.35440597 1673.99749612 -837.92578125 1675.7578125 C-829.34106826 1686.33072652 -820.49043803 1696.6506793 -811.28515625 1706.6875 C-809.38828236 1708.76772725 -807.52857057 1710.87056898 -805.6875 1713 C-797.78616269 1722.06710839 -789.54710382 1730.76975972 -780.94921875 1739.17578125 C-778.75778938 1741.35848134 -776.73366094 1743.64258654 -774.72265625 1745.9921875 C-771.01481366 1750.27420645 -766.97558495 1754.10371465 -762.8125 1757.9375 C-757.78867696 1762.60896485 -752.82063195 1767.30618877 -748 1772.1875 C-744.51904683 1775.70503977 -740.97474247 1779.04705642 -737.2109375 1782.2578125 C-735.03004262 1784.15320841 -732.90794254 1786.1052652 -730.7902832 1788.07080078 C-725.58357052 1792.90200954 -720.25082207 1797.48561882 -714.71484375 1801.94140625 C-712.06982363 1804.11897068 -709.53037475 1806.37818763 -707 1808.6875 C-703.06732867 1812.26265575 -699.03014535 1815.63391266 -694.85546875 1818.921875 C-692.82512665 1820.52343157 -690.8084513 1822.13617784 -688.80078125 1823.765625 C-679.22923185 1831.51830242 -669.42921624 1838.93987781 -659.53857422 1846.27978516 C-657.25688912 1847.98013775 -654.98799574 1849.69593604 -652.72265625 1851.41796875 C-637.88342341 1862.62224556 -622.31852828 1872.76782066 -606.79284668 1882.98510742 C-604.53868411 1884.4700718 -602.2891835 1885.9620461 -600.0390625 1887.453125 C-587.9616111 1895.40956378 -575.51873114 1902.78117662 -563.0625 1910.125 C-562.1864209 1910.64175293 -561.3103418 1911.15850586 -560.40771484 1911.69091797 C-502.77179088 1945.52192805 -441.83510659 1972.10287892 -378.91796875 1994.37890625 C-377.873881 1994.74912903 -377.873881 1994.74912903 -376.80870056 1995.12683105 C-371.83481363 1996.87978939 -366.83275752 1998.49486099 -361.78125 2000.0078125 C-358.87861187 2000.87982353 -355.98542289 2001.77251726 -353.09375 2002.6796875 C-338.20387425 2007.32348804 -323.18676927 2011.32126139 -308.0625 2015.125 C-307.28326172 2015.3219043 -306.50402344 2015.51880859 -305.70117188 2015.72167969 C-302.52556951 2016.52385791 -299.34807889 2017.31742575 -296.16796875 2018.1015625 C-292.99756928 2018.88522103 -289.83634697 2019.7010426 -286.67578125 2020.5234375 C-272.89923995 2024.08070136 -259.08320552 2026.99062092 -245.09033203 2029.55908203 C-242.32408529 2030.07610831 -239.56594968 2030.62135288 -236.80859375 2031.18359375 C-222.97116721 2033.9845067 -209.04679253 2035.85443456 -195.04345703 2037.62060547 C-191.07804272 2038.12085624 -187.11523415 2038.64028059 -183.15234375 2039.16015625 C-116.08324957 2047.90708696 -46.56028871 2051.09862912 20.9375 2045.125 C21.72096802 2045.0571228 22.50443604 2044.98924561 23.31164551 2044.91931152 C42.07539561 2043.29058689 60.80589396 2041.35771465 79.5 2039.0625 C81.35081177 2038.83747803 81.35081177 2038.83747803 83.23901367 2038.60791016 C90.14457614 2037.72851484 96.97710642 2036.60835716 103.81074524 2035.29058838 C108.5877337 2034.36987016 113.37236267 2033.52518506 118.171875 2032.73046875 C136.54372301 2029.67739015 154.77960415 2026.29592261 172.9375 2022.125 C174.13600586 2021.85042969 175.33451172 2021.57585937 176.56933594 2021.29296875 C192.13914154 2017.69709485 207.53045459 2013.6852596 222.82519531 2009.05786133 C225.82166724 2008.15971894 228.82393935 2007.28296454 231.82763672 2006.40934753 C261.68929365 1997.70388288 291.0182523 1987.56692241 319.9375 1976.125 C320.58531433 1975.86910095 321.23312866 1975.6132019 321.90057373 1975.34954834 C362.59043124 1959.24311912 402.68516175 1940.52790695 440.52197266 1918.51416016 C443.51867063 1916.79077109 446.55075302 1915.13863711 449.58886719 1913.48974609 C468.86273641 1902.99058236 487.24897958 1891.03807237 505.5 1878.875 C506.24401062 1878.37965759 506.98802124 1877.88431519 507.75457764 1877.3739624 C522.34658597 1867.64447773 536.79682354 1857.71475452 550.6875 1847 C551.57091064 1846.32259766 552.45432129 1845.64519531 553.36450195 1844.94726562 C555.10362798 1843.61307186 556.84171932 1842.27752794 558.57861328 1840.94042969 C560.65236067 1839.34444691 562.72937968 1837.75291154 564.80859375 1836.1640625 C571.25301824 1831.23462047 577.63240063 1826.23152617 583.9375 1821.125 C584.78570313 1820.44050781 585.63390625 1819.75601562 586.5078125 1819.05078125 C592.87910186 1813.87759149 599.12895669 1808.57378807 605.34375 1803.21484375 C607.66534405 1801.21353441 609.99784887 1799.2266574 612.34375 1797.25390625 C621.15633306 1789.82137826 629.5454836 1781.99368105 637.8984375 1774.05078125 C639.73100053 1772.32002728 641.5779954 1770.6079526 643.4375 1768.90625 C651.98701408 1761.07031357 660.22965812 1752.94058503 668.4375 1744.75 C669.28790359 1743.9034787 669.28790359 1743.9034787 670.15548706 1743.03985596 C675.71704037 1737.4983579 681.22626704 1731.95587588 686.32714844 1725.98046875 C689.36654278 1722.47843767 692.61073079 1719.16537606 695.8125 1715.8125 C701.08286542 1710.25744558 706.1130028 1704.64993492 710.875 1698.65234375 C713.09047804 1695.93754395 715.42790467 1693.37966591 717.8125 1690.8125 C722.07727998 1686.17801773 725.98470813 1681.35626045 729.8359375 1676.38085938 C732.74969201 1672.61998804 735.73770064 1668.94454455 738.8125 1665.3125 C745.12238547 1657.78840945 751.0421026 1649.97597674 756.9375 1642.125 C757.49453613 1641.38362793 758.05157227 1640.64225586 758.62548828 1639.87841797 C784.38255311 1605.49351739 807.64490163 1569.42681455 828.9375 1532.125 C829.84725586 1530.53413574 829.84725586 1530.53413574 830.77539062 1528.91113281 C849.4903073 1496.01795203 866.32012678 1462.03291127 880.9375 1427.125 C881.20137512 1426.49541382 881.46525024 1425.86582764 881.73712158 1425.21716309 C898.30824277 1385.57553442 912.79275777 1344.63301378 923.9375 1303.125 C924.13327637 1302.40521973 924.32905273 1301.68543945 924.53076172 1300.94384766 C925.78703844 1296.31671759 927.00087456 1291.67974069 928.19091797 1287.03515625 C928.73628047 1284.9093482 929.28528855 1282.78447446 929.83642578 1280.66015625 C937.8409735 1249.74274026 943.72455881 1218.61704945 948.6340332 1187.07208252 C948.91486316 1185.27024095 949.1985188 1183.46884039 949.48242188 1181.66748047 C950.7462091 1173.58440557 951.87763495 1165.48726163 952.9375 1157.375 C953.02432037 1156.71178741 953.11114075 1156.04857483 953.20059204 1155.36526489 C954.78911204 1143.14193312 955.90601346 1130.91094039 956.70385742 1118.60913086 C956.9375 1116.125 956.9375 1116.125 957.41934204 1113.39273071 C958.39071218 1107.26684574 958.62159859 1101.05835244 958.98046875 1094.87109375 C959.0247167 1094.1106671 959.06896465 1093.35024044 959.11455345 1092.56677055 C960.18308276 1073.69890524 960.29355899 1054.83900414 960.25535583 1035.94553375 C960.24990811 1033.14018113 960.24754628 1030.33483696 960.2454834 1027.52947998 C960.21520512 1001.09871584 959.81582849 974.81642354 957.17181396 948.49731445 C956.92526566 946.00113324 956.6944153 943.50387961 956.46728516 941.00585938 C954.8196307 922.91552931 952.86089046 904.92840805 949.8671875 887.00390625 C949.12410311 882.51506991 948.55318795 878.02232944 948.01953125 873.50390625 C946.96792489 864.76328792 945.40971438 856.14305807 943.75 847.5 C943.59821289 846.70263428 943.44642578 845.90526855 943.29003906 845.08374023 C940.51678068 830.55584456 937.32292677 816.15728139 933.82568359 801.78515625 C933.05742038 798.61918536 932.29965766 795.45094972 931.54849243 792.28088379 C930.78556903 789.06148179 930.01760434 785.84328917 929.25 782.625 C928.97671875 781.47451172 928.7034375 780.32402344 928.421875 779.13867188 C918.34815054 737.31081595 904.2172478 695.91380734 887.9375 656.125 C887.43122092 654.88122323 886.925038 653.63740731 886.41894531 652.39355469 C870.55826205 613.49242559 852.62684455 575.10167141 831.47314453 538.78613281 C829.88024222 536.02577745 828.32446829 533.2471876 826.77734375 530.4609375 C800.03926894 482.35441955 768.01373061 436.50877865 732.9375 394.125 C731.49981259 392.35431882 730.06231798 390.58348108 728.625 388.8125 C720.96324666 379.45259191 713.06672177 370.29650416 704.9375 361.33984375 C703.14146471 359.35087498 701.37796697 357.33936806 699.625 355.3125 C692.43811759 347.07509881 685.02347961 339.02260501 677.16796875 331.41796875 C675.25471186 329.45110046 673.46360637 327.44314376 671.671875 325.3671875 C667.95281764 321.08567551 664.02053982 317.0597773 660 313.0625 C659.00323242 312.05993164 659.00323242 312.05993164 657.98632812 311.03710938 C654.03765178 307.09609293 649.97093968 303.36127025 645.74780273 299.71704102 C643.3671069 297.62337715 641.14863363 295.395894 638.9375 293.125 C635.4470856 289.59745353 631.89105686 286.25115526 628.12109375 283.02734375 C625.92968635 281.11819276 623.79438272 279.15508684 621.66430664 277.17797852 C616.55692308 272.43997908 611.33664256 267.93178137 605.90625 263.5625 C602.41467355 260.69573197 599.02240453 257.72706682 595.625 254.75 C589.19516991 249.13849717 582.59566691 243.80740112 575.83886719 238.59667969 C573.79397509 237.0139101 571.7596568 235.41820476 569.7265625 233.8203125 C520.98835197 195.57517731 468.65180101 161.7032576 413.50292969 133.45263672 C411.12619666 132.2226525 408.76720908 130.96581049 406.4140625 129.69140625 C345.86457334 96.96013616 278.13959727 70.75634789 211.4375 54.0625 C209.39286277 53.54554248 207.3486238 53.02703172 205.3044281 52.5083313 C203.97269342 52.17050432 202.64079769 51.83331147 201.30873108 51.49679565 C197.88136547 50.62885269 194.46405665 49.73536274 191.05859375 48.78515625 C164.31714722 41.33030087 136.78970916 36.5100572 109.41860962 32.02891541 C105.91217454 31.45474866 102.41048594 30.86273742 98.9140625 30.23046875 C83.69497807 27.49550096 68.30031167 25.82696895 52.9375 24.125 C51.63425781 23.98030273 50.33101562 23.83560547 48.98828125 23.68652344 C-36.74630462 14.44449239 -125.06666234 16.98238814 -210.21142578 30.51318359 Z " fill="#030303" transform="translate(1088.0625,0.875)"/>
<path d="M0 0 C153.77378107 0 153.77378107 0 177.8515625 22.73046875 C200.42179812 46.57284492 205.98101133 79.53142474 209 111 C209.09788818 111.99354492 209.19577637 112.98708984 209.29663086 114.01074219 C210.31105753 125.901524 210.19912169 137.82485733 210.1875 149.75 C210.18689575 150.88828247 210.1862915 152.02656494 210.18566895 153.19934082 C210.12430205 195.69367336 208.8421095 247.07864716 178 280 C135.04268765 321.49663094 39.56483689 303 0 303 C0 203.01 0 103.02 0 0 Z " fill="#131718" transform="translate(414,933)"/>
<path d="M0 0 C25.08 0 50.16 0 76 0 C78.63717583 5.27435167 81.017514 10.32184728 83.07421875 15.80078125 C83.3548819 16.53721863 83.63554504 17.27365601 83.92471313 18.03240967 C84.5309388 19.6235272 85.13546122 21.21529454 85.73843384 22.80764771 C87.39619245 27.18293852 89.06918395 31.5523952 90.7421875 35.921875 C91.09128677 36.83409317 91.44038605 37.74631134 91.80006409 38.68617249 C95.565505 48.5068429 99.43337586 58.28629855 103.3125 68.0625 C104.74782228 71.68212272 106.18269633 75.30192282 107.6171875 78.921875 C107.97659424 79.82881104 108.33600098 80.73574707 108.70629883 81.67016602 C112.81243509 92.03955812 116.87703873 102.42515424 120.9375 112.8125 C121.42484116 114.05919968 121.42484116 114.05919968 121.92202759 115.33108521 C122.91556665 117.873028 123.90895271 120.4150306 124.90234375 122.95703125 C132.59532757 142.64045881 140.2990138 162.31970194 148 182 C148.495 91.91 148.495 91.91 149 0 C167.48 0 185.96 0 205 0 C205 100.32 205 200.64 205 304 C181.9 304 158.8 304 135 304 C131.04 294.1 127.08 284.2 123 274 C119.85655483 266.25726926 116.71168218 258.51546457 113.55224609 250.77929688 C111.16157532 244.92536099 108.77434914 239.07002021 106.38671875 233.21484375 C105.91688568 232.0628952 105.44705261 230.91094666 104.96298218 229.72409058 C101.12880368 220.32138336 97.31010967 210.91248109 93.5 201.5 C89.17086399 190.80575581 84.82788759 180.11724064 80.47265625 169.43359375 C79.7429512 167.64346359 79.7429512 167.64346359 78.99850464 165.81716919 C76.58726518 159.90243468 74.17510446 153.98807784 71.76171875 148.07421875 C70.86326581 145.87110005 69.96482769 143.6679753 69.06640625 141.46484375 C68.67413345 140.50444687 68.28186066 139.54404999 67.87770081 138.55455017 C63.86934518 128.7220652 59.94381309 118.85953272 56 109 C55.67 173.35 55.34 237.7 55 304 C36.85 304 18.7 304 0 304 C0 203.68 0 103.36 0 0 Z " fill="#141819" transform="translate(1451,933)"/>
<path d="M0 0 C27.06 0 54.12 0 82 0 C88.76542208 23.67897727 88.76542208 23.67897727 91.125 33 C92.89126465 39.87745019 94.77820814 46.67171883 96.9375 53.4375 C98.7264169 59.43563313 100.23126806 65.50879553 101.7890625 71.5703125 C103.08562355 76.58630121 104.42428533 81.56276071 106 86.5 C108.21751845 93.44822448 109.97431756 100.50897823 111.7890625 107.5703125 C113.08562355 112.58630121 114.42428533 117.56276071 116 122.5 C118.21751845 129.44822448 119.97431756 136.50897823 121.7890625 143.5703125 C123.08562355 148.58630121 124.42428533 153.56276071 126 158.5 C128.21751845 165.44822448 129.97431756 172.50897823 131.7890625 179.5703125 C133.08562355 184.58630121 134.42428533 189.56276071 136 194.5 C138.21751845 201.44822448 139.97431756 208.50897823 141.7890625 215.5703125 C143.08562355 220.58630121 144.42428533 225.56276071 146 230.5 C148.21751845 237.44822448 149.97431756 244.50897823 151.7890625 251.5703125 C153.08562355 256.58630121 154.42428533 261.56276071 156 266.5 C157.92943738 272.57325014 159.56728794 278.71357599 161.1875 284.875 C161.44982422 285.86306641 161.71214844 286.85113281 161.98242188 287.86914062 C162.22927734 288.81724609 162.47613281 289.76535156 162.73046875 290.7421875 C163.06147583 292.00844971 163.06147583 292.00844971 163.39916992 293.30029297 C164.11105589 296.49900692 164.53656602 299.75596215 165 303 C143.22 303 121.44 303 99 303 C93.2443487 282.27965533 93.2443487 282.27965533 91.5625 275 C91.36567627 274.16041748 91.16885254 273.32083496 90.96606445 272.45581055 C90.54031299 270.63552098 90.11645146 268.8147885 89.69433594 266.99365234 C88.91812663 263.64700025 88.13473998 260.30205922 87.3515625 256.95703125 C86.79647007 254.57561518 86.24177717 252.19410595 85.6875 249.8125 C85.42074463 248.67103516 85.15398926 247.52957031 84.87915039 246.35351562 C84.63414795 245.29455078 84.38914551 244.23558594 84.13671875 243.14453125 C83.91717529 242.19940674 83.69763184 241.25428223 83.47143555 240.28051758 C83 238 83 238 83 236 C53.63 236 24.26 236 -6 236 C-6.495 239.96 -6.495 239.96 -7 244 C-7.51084553 246.5384864 -8.05773119 249.06993349 -8.63671875 251.59375 C-8.79864212 252.30237183 -8.96056549 253.01099365 -9.12739563 253.74108887 C-9.47098402 255.24074907 -9.81648861 256.73997143 -10.16381836 258.23876953 C-10.67315959 260.43807886 -11.1760047 262.63878721 -11.67773438 264.83984375 C-14.61445575 277.60868583 -17.82064617 290.28258468 -21 303 C-41.79 303 -62.58 303 -84 303 C-82.87506559 292.87559028 -82.87506559 292.87559028 -81.58203125 288.390625 C-81.30037109 287.39998047 -81.01871094 286.40933594 -80.72851562 285.38867188 C-80.27508789 283.8350293 -80.27508789 283.8350293 -79.8125 282.25 C-79.49861328 281.15236328 -79.18472656 280.05472656 -78.86132812 278.92382812 C-77.91376634 275.61406181 -76.95720607 272.30698768 -76 269 C-75.23798131 266.34104117 -74.4786647 263.68132378 -73.71972656 261.02148438 C-73.2368652 259.32983167 -72.75313031 257.63842808 -72.26855469 255.94726562 C-69.12720149 244.97943166 -66.0689569 233.98825768 -63 223 C-56.15452362 198.5040032 -56.15452362 198.5040032 -53.0859375 187.81640625 C-51.58125707 182.52837467 -50.10434504 177.23266636 -48.625 171.9375 C-46.20394336 163.27320794 -43.75466937 154.61772678 -41.27441406 145.97021484 C-38.97041045 137.92456078 -36.71672235 129.86505984 -34.46484375 121.8046875 C-32.69648817 115.47790419 -30.90672501 109.15790435 -29.09375 102.84375 C-27.54492684 97.40074288 -26.02349047 91.95014375 -24.5 86.5 C-22.38709423 78.94127854 -20.25976226 71.38744788 -18.09375 63.84375 C-16.54492676 58.40074262 -15.02353419 52.95013173 -13.5 47.5 C-11.02778319 38.65834175 -8.53295323 29.82448223 -6 21 C-4.02 14.07 -2.04 7.14 0 0 Z " fill="#141718" transform="translate(926,933)"/>
<path d="M0 0 C20.79 0 41.58 0 63 0 C63.33 42.57 63.66 85.14 64 129 C70.27 118.44 76.54 107.88 83 97 C91.5 83 91.5 83 95.6875 76.125 C100.35228461 68.45265689 104.92614949 60.72676755 109.5 53 C115.72283121 42.49151264 121.98257597 32.00687465 128.3125 21.5625 C128.66135254 20.98540283 129.01020508 20.40830566 129.36962891 19.8137207 C130.36531314 18.16745003 131.36424877 16.52314721 132.36328125 14.87890625 C132.92313721 13.9566626 133.48299316 13.03441895 134.05981445 12.08422852 C135.0202063 10.5575354 135.0202063 10.5575354 136 9 C136.5115564 7.84303871 136.5115564 7.84303871 137.03344727 6.66270447 C138.44354845 3.88133818 139.63944093 2.05391273 142 0 C147.00464143 -1.26816471 151.91012943 -1.05043584 157.0234375 -0.87890625 C158.49455867 -0.86210396 159.96573047 -0.84930041 161.43692017 -0.84031677 C165.29507365 -0.80607541 169.15014021 -0.71779142 173.00708008 -0.61798096 C176.94830562 -0.52563706 180.89003396 -0.48475096 184.83203125 -0.43945312 C192.5560896 -0.34314901 200.27761109 -0.18971145 208 0 C206.89427205 1.90337765 205.78755155 3.80617872 204.68041992 5.70874023 C204.06422287 6.76842514 203.44802582 7.82811005 202.81315613 8.91990662 C200.39769717 13.02316008 197.87371212 17.04921346 195.3125 21.0625 C194.26298635 22.71612395 193.21350816 24.36977041 192.1640625 26.0234375 C191.6371582 26.85198242 191.11025391 27.68052734 190.56738281 28.53417969 C188.1008874 32.41449179 185.6434282 36.30049357 183.1875 40.1875 C182.70063721 40.95779541 182.21377441 41.72809082 181.7121582 42.52172852 C176.97128 50.03047784 172.26938517 57.56345685 167.56713867 65.09643555 C163.25313219 72.00424738 158.91420503 78.895714 154.55859375 85.77734375 C149.87443015 93.18456778 145.22963866 100.61625774 140.59716797 108.0559082 C137.56762024 112.91628151 134.52012439 117.76231248 131.4140625 122.57421875 C130.85783203 123.43982422 130.30160156 124.30542969 129.72851562 125.19726562 C128.68948117 126.81086967 127.64427783 128.42052476 126.59179688 130.02539062 C126.13095703 130.74275391 125.67011719 131.46011719 125.1953125 132.19921875 C124.59227295 133.12480591 124.59227295 133.12480591 123.97705078 134.0690918 C122.75975944 136.47477827 122.21058723 138.29994383 122 141 C122.9447451 143.79431311 122.9447451 143.79431311 124.54296875 146.62109375 C125.11563477 147.70914307 125.68830078 148.79719238 126.27832031 149.91821289 C126.91437247 151.09149356 127.55077495 152.26458437 128.1875 153.4375 C128.83935379 154.6627255 129.4900561 155.88856426 130.13964844 157.11499023 C132.07336916 160.75418129 134.03382654 164.37823595 136 168 C136.76981201 169.41974121 136.76981201 169.41974121 137.55517578 170.86816406 C139.42344962 174.30609684 141.29804315 177.74043129 143.18310547 181.16918945 C147.8156819 189.60747341 152.31740427 198.1130002 156.8125 206.625 C164.21054626 220.63092356 171.6623479 234.6063247 179.15576172 248.56152344 C181.06706772 252.12504392 182.97364397 255.69105897 184.87890625 259.2578125 C185.8498663 261.07455185 186.82094844 262.89122586 187.79211426 264.70785522 C188.73647918 266.47470338 189.6802556 268.24186604 190.62402344 270.0090332 C193.5063772 275.39405933 196.41078218 280.76369417 199.38671875 286.09765625 C199.90459961 287.02707031 200.42248047 287.95648437 200.95605469 288.9140625 C201.91566997 290.62960413 202.88082364 292.34206427 203.85253906 294.05078125 C204.27116211 294.7984375 204.68978516 295.54609375 205.12109375 296.31640625 C205.4864624 296.96037354 205.85183105 297.60434082 206.22827148 298.26782227 C207 300 207 300 207 303 C182.91 303 158.82 303 134 303 C130.101875 295.059375 126.20375 287.11875 122.1875 278.9375 C120.98246826 276.4843335 119.77743652 274.03116699 118.53588867 271.50366211 C112.92950924 260.08012608 107.36946284 248.63673867 101.89341736 237.15013123 C97.56528791 228.07405801 93.16471975 219.03419677 88.75 210 C80.45649729 193.02085814 72.23064056 176.0099905 64 159 C63.67 206.52 63.34 254.04 63 303 C42.21 303 21.42 303 0 303 C0 203.01 0 103.02 0 0 Z " fill="#131718" transform="translate(1112,933)"/>
<path d="M0 0 C54.12 0 108.24 0 164 0 C164 16.83 164 33.66 164 51 C131 51 98 51 64 51 C64 72.45 64 93.9 64 116 C94.36 116 124.72 116 156 116 C156 133.49 156 150.98 156 169 C125.64 169 95.28 169 64 169 C64 195.73 64 222.46 64 250 C97 250 130 250 164 250 C164 267.49 164 284.98 164 303 C109.88 303 55.76 303 0 303 C0 203.01 0 103.02 0 0 Z " fill="#131718" transform="translate(657,933)"/>
<path d="M0 0 C20.46 0 40.92 0 62 0 C62 100.32 62 200.64 62 304 C41.54 304 21.08 304 0 304 C0 203.68 0 103.36 0 0 Z " fill="#15191A" transform="translate(1348,933)"/>
<path d="M0 0 C52 0 52 0 65.44921875 11.00390625 C85.92098838 32.17756512 82.35726147 68.60104481 82.31567383 95.80664062 C82.31104435 99.09519128 82.31796935 102.38337194 82.33618164 105.671875 C82.69989914 172.02095965 82.69989914 172.02095965 66 190 C49.09192122 206.47638315 20.35449977 201 0 201 C0 134.67 0 68.34 0 0 Z " fill="#FEFEFE" transform="translate(477,983)"/>
<path d="M0 0 C1.28952072 -0.00945648 2.57904144 -0.01891296 3.90763855 -0.02865601 C5.32164818 -0.02327894 6.73565504 -0.01712418 8.1496582 -0.01025391 C9.60919846 -0.01227728 11.06873772 -0.0151909 12.52827454 -0.01895142 C15.59756024 -0.02338057 18.66658453 -0.01693711 21.73583984 -0.00292969 C25.62315419 0.01396643 29.5098381 0.00445161 33.39712811 -0.01364708 C36.41997264 -0.02463873 39.44267516 -0.02096611 42.46552467 -0.0132637 C43.89529307 -0.01129344 45.32507535 -0.01360616 46.7548275 -0.02070236 C61.03824341 -0.07592805 77.76535693 0.472192 89.00512695 10.36083984 C93.89213559 15.43581035 96.71165636 20.67805415 98.76293945 27.38818359 C98.93801025 27.95182617 99.11308105 28.51546875 99.29345703 29.09619141 C100.3326008 34.16924482 99.98921079 39.48196427 100.00317383 44.64770508 C100.01276834 46.78752207 100.0437602 48.92633072 100.07543945 51.06591797 C100.17329991 63.62294491 99.08572016 76.35723392 90.76293945 86.38818359 C85.21142272 91.40794585 78.95550775 93.67638237 71.76293945 95.38818359 C75.83587717 103.20412831 80.01650027 110.93169503 84.51293945 118.51318359 C84.92068604 119.20250977 85.32843262 119.89183594 85.74853516 120.60205078 C86.61442654 122.06579982 87.48039593 123.52950272 88.34643555 124.99316406 C88.81388184 125.78352051 89.28132813 126.57387695 89.76293945 127.38818359 C90.29097168 128.28037598 90.81900391 129.17256836 91.36303711 130.09179688 C93.02702923 132.9141105 94.67738298 135.74404084 96.32543945 138.57568359 C96.85041016 139.46078613 97.37538086 140.34588867 97.91625977 141.2578125 C100.44951666 145.63275218 102.41674125 149.228986 102.76293945 154.38818359 C98.49173284 158.29742355 94.63854517 157.82563186 89.09106445 157.65771484 C84.48522105 157.2847064 80.76143537 156.7769447 76.76293945 154.38818359 C75.34375 152.71020508 75.34375 152.71020508 74.0246582 150.63427734 C73.51153076 149.82788818 72.99840332 149.02149902 72.46972656 148.19067383 C69.08243233 142.62884426 65.78421236 137.01866178 62.51293945 131.38818359 C61.38350526 129.44981003 60.25335512 127.51185512 59.12315369 125.57392883 C58.37904172 124.29783556 57.63527381 123.02154158 56.89186096 121.74504089 C54.75610429 118.0800958 52.60381108 114.4258204 50.4309082 110.78271484 C49.96007813 109.991875 49.48924805 109.20103516 49.00415039 108.38623047 C48.15789218 106.96755941 47.3084639 105.55077276 46.45532227 104.13623047 C43.76293945 99.60997486 43.76293945 99.60997486 43.76293945 97.38818359 C34.85293945 97.38818359 25.94293945 97.38818359 16.76293945 97.38818359 C16.8093457 101.46806641 16.85575195 105.54794922 16.90356445 109.75146484 C16.92928656 113.00368 16.95097824 116.25586643 16.96994019 119.50812531 C16.99106762 122.94190362 17.01930103 126.37528736 17.06469727 129.80883789 C17.1164527 133.74799851 17.13588182 137.68699778 17.15356445 141.62646484 C17.17420959 142.85778641 17.19485474 144.08910797 17.21612549 145.35774231 C17.21642761 146.49869858 17.21672974 147.63965485 17.21704102 148.81518555 C17.22592346 149.82112259 17.23480591 150.82705963 17.24395752 151.86347961 C16.76293945 154.38818359 16.76293945 154.38818359 14.91912842 156.21159363 C9.84931906 158.97808901 2.62261181 158.09879495 -2.83081055 156.74365234 C-7.65611499 154.96912915 -7.65611499 154.96912915 -9.23706055 153.38818359 C-9.34025268 151.45882496 -9.37228388 149.52564562 -9.37750244 147.59353638 C-9.38321259 146.33437408 -9.38892273 145.07521179 -9.39480591 143.77789307 C-9.3960514 142.36950693 -9.39717646 140.96112069 -9.39819336 139.55273438 C-9.40281915 138.07963943 -9.40784348 136.6065457 -9.41323853 135.13345337 C-9.4263877 131.12104289 -9.43281239 127.10864916 -9.43724918 123.09622049 C-9.4401759 120.59175165 -9.44427993 118.08728742 -9.44875336 115.58282089 C-9.46243501 107.75371513 -9.47209835 99.92461987 -9.47595525 92.09550297 C-9.48043761 83.04535611 -9.49799091 73.99536017 -9.52695584 64.94525921 C-9.54854421 57.9584103 -9.558658 50.97160394 -9.55999637 43.98472202 C-9.56104646 39.80782142 -9.56699733 35.63106254 -9.58481598 31.45419693 C-9.60124762 27.52586556 -9.60347626 23.59778319 -9.59467697 19.66942978 C-9.59390394 18.22583094 -9.59828414 16.78221899 -9.60813522 15.33865356 C-9.62077488 13.37140865 -9.61321545 11.40406454 -9.60455322 9.4367981 C-9.60601978 8.33471071 -9.60748634 7.23262333 -9.60899734 6.09713936 C-9.23706055 3.38818359 -9.23706055 3.38818359 -7.88888454 1.53395462 C-5.32115797 -0.24712297 -3.09170198 0.00649964 0 0 Z " fill="#161A1B" transform="translate(1085.237060546875,1313.61181640625)"/>
<path d="M0 0 C1.96483273 2.12856879 3.46585574 4.3270329 5.015625 6.77734375 C5.69109375 7.82664062 6.3665625 8.8759375 7.0625 9.95703125 C8.72064043 12.57141965 10.34287343 15.20592966 11.95703125 17.84765625 C15.62849462 23.81798036 19.48206838 29.66866524 23.328125 35.52734375 C24.07053545 36.65946574 24.81288563 37.79162725 25.55517578 38.92382812 C27.01971091 41.1574294 28.48461673 43.39078612 29.94970703 45.62402344 C32.89940071 50.12629755 35.83440783 54.63802575 38.765625 59.15234375 C39.28471436 59.95164307 39.80380371 60.75094238 40.33862305 61.57446289 C41.37460314 63.16986251 42.41049251 64.76532105 43.44628906 66.36083984 C45.06995778 68.86100676 46.69494467 71.36031239 48.3203125 73.859375 C54.08820055 82.72804179 59.84943271 91.60089203 65.59033203 100.48706055 C67.38332356 103.26130993 69.18329195 106.02884418 71.015625 108.77734375 C71.345625 73.46734375 71.675625 38.15734375 72.015625 1.77734375 C78.80306402 -1.61637576 86.49505409 -2.1342406 94.015625 -1.22265625 C95.66058445 -0.08883667 95.66058445 -0.08883667 97.015625 1.77734375 C97.39594173 4.54318237 97.39594173 4.54318237 97.40330505 7.96435547 C97.41320969 9.25992371 97.42311432 10.55549194 97.43331909 11.89031982 C97.42908082 13.32922458 97.42452294 14.76812841 97.41967773 16.20703125 C97.42537887 17.71983343 97.43234214 19.2326313 97.44047546 20.74542236 C97.45844934 24.85694707 97.45723075 28.96825887 97.45153308 33.0798111 C97.44844767 36.50944756 97.45452635 39.93904273 97.46057183 43.36867332 C97.47462899 51.45740554 97.47304556 59.54603216 97.46166992 67.63476562 C97.45018383 75.98674102 97.46426979 84.33839549 97.4910664 92.6903286 C97.51319706 99.85558018 97.51986685 107.02073083 97.51398998 114.18601418 C97.5106133 118.46798002 97.51308252 122.74974005 97.53024101 127.03167725 C97.5456666 131.05697636 97.54180401 135.08179858 97.52293587 139.10707855 C97.51923791 140.58614763 97.52239349 142.0652517 97.53282166 143.54428864 C97.54594846 145.55960073 97.53212775 147.57503524 97.51683044 149.59033203 C97.51651652 151.28381271 97.51651652 151.28381271 97.51619625 153.01150513 C97.015625 155.77734375 97.015625 155.77734375 95.15300083 157.63912964 C92.40396971 159.10306779 90.43513324 159.17671244 87.328125 159.15234375 C86.35488281 159.16007812 85.38164063 159.1678125 84.37890625 159.17578125 C73.94085854 157.93921811 73.94085854 157.93921811 70.03930664 153.55810547 C68.02011027 150.61435323 66.19077041 147.60991709 64.390625 144.52734375 C63.35113359 142.82565418 62.31160035 141.12398749 61.26893616 139.42424011 C60.2035289 137.68177192 59.14859085 135.93325616 58.09423828 134.18408203 C54.95285617 129.03552131 51.64518695 124.00128833 48.328125 118.96484375 C47.08922273 117.07071855 45.85093443 115.17619161 44.61328125 113.28125 C44.01402832 112.3648877 43.41477539 111.44852539 42.79736328 110.50439453 C39.9467632 106.14139057 37.10550374 101.77233139 34.265625 97.40234375 C33.73171143 96.58080811 33.19779785 95.75927246 32.64770508 94.9128418 C28.82449059 89.02757631 25.00965169 83.13692646 21.20068359 77.24243164 C18.6334722 73.2712912 16.05840379 69.30539727 13.4765625 65.34375 C12.88037109 64.42851563 12.28417969 63.51328125 11.66992188 62.5703125 C10.50285584 60.77935935 9.33491686 58.98897467 8.16601562 57.19921875 C7.63943359 56.39097656 7.11285156 55.58273437 6.5703125 54.75 C6.10093262 54.03078369 5.63155273 53.31156738 5.14794922 52.57055664 C4.015625 50.77734375 4.015625 50.77734375 3.015625 48.77734375 C3.01342516 49.60036972 3.01342516 49.60036972 3.01118088 50.44002247 C2.97414366 63.78520597 2.91491694 77.1301317 2.83172226 90.47511005 C2.79216323 96.92864838 2.76001608 103.38204854 2.74462891 109.83569336 C2.72951789 116.06039076 2.69517123 122.28470848 2.64731598 128.50923729 C2.63244475 130.88752129 2.62458072 133.26585949 2.62374115 135.64418983 C2.62138704 138.96804213 2.59443217 142.29083177 2.56152344 145.61450195 C2.5665538 146.60424515 2.57158417 147.59398834 2.57676697 148.61372375 C2.55589775 149.97038147 2.55589775 149.97038147 2.53460693 151.35444641 C2.53091976 152.14073583 2.52723259 152.92702524 2.52343369 153.73714161 C2.015625 155.77734375 2.015625 155.77734375 0.16775894 157.52887249 C-4.8221809 160.42357916 -12.14600474 159.48266166 -17.578125 158.1328125 C-22.40342944 156.35828931 -22.40342944 156.35828931 -23.984375 154.77734375 C-24.09199138 152.82277349 -24.12850184 150.86427503 -24.13827515 148.9067688 C-24.14687561 147.6307782 -24.15547607 146.3547876 -24.16433716 145.04013062 C-24.16877276 143.61285441 -24.17307108 142.18557777 -24.17724609 140.75830078 C-24.18514363 139.26550097 -24.19341236 137.77270308 -24.20202637 136.27990723 C-24.22828451 131.36500889 -24.24355671 126.45010185 -24.2578125 121.53515625 C-24.26317042 119.84597645 -24.26854792 118.15679671 -24.27394485 116.46761703 C-24.29557821 109.44362947 -24.31431678 102.41964425 -24.32556725 95.39563179 C-24.34181822 85.31449049 -24.37501826 75.23373395 -24.43196809 65.15273774 C-24.47060858 58.07247437 -24.49019285 50.99231416 -24.49548781 43.91194808 C-24.49914913 39.67904046 -24.51125224 35.44654283 -24.54359055 31.21374893 C-24.5735685 27.23277303 -24.58002035 23.25245737 -24.56820679 19.27139282 C-24.56798519 17.80842509 -24.57636135 16.34542763 -24.59386063 14.88256454 C-24.61641308 12.88913253 -24.60531573 10.89540358 -24.59237671 8.90188599 C-24.59568686 7.78504992 -24.598997 6.66821384 -24.60240746 5.51753426 C-23.984375 2.77734375 -23.984375 2.77734375 -21.59920692 0.93533134 C-15.52782749 -1.75340058 -5.92825442 -3.65264495 0 0 Z " fill="#15191A" transform="translate(592.984375,1312.22265625)"/>
<path d="M0 0 C2.8125 0.375 2.8125 0.375 5.45004272 2.25523376 C8.81237071 6.69538912 8.49876895 10.23501859 8.42431641 15.66625977 C8.42998123 16.70110001 8.43564606 17.73594025 8.44148254 18.80213928 C8.45498745 22.22392981 8.43402821 25.64466181 8.4140625 29.06640625 C8.41956392 31.45190658 8.42768965 33.83740217 8.43832397 36.22288513 C8.46123586 42.50988515 8.45698438 48.79653796 8.44451904 55.08355713 C8.4262383 65.12095933 8.43631558 75.15815511 8.47037888 85.19550896 C8.4764508 88.68962731 8.46325757 92.18330006 8.44839478 95.67738342 C7.96720151 113.31954925 7.96720151 113.31954925 14.3125 129.375 C20.76562341 135.78113465 29.05926622 136.74466018 37.75 136.8125 C47.18196535 136.68999422 57.50416986 135.95249712 64.8125 129.375 C70.81957919 121.03183445 71.10919876 111.31158408 71.13134766 101.32568359 C71.14139328 100.27083771 71.1514389 99.21599182 71.16178894 98.12918091 C71.19243286 94.67727148 71.20960359 91.22543893 71.2265625 87.7734375 C71.24528927 85.36633654 71.26486379 82.95924204 71.2852478 80.55215454 C71.33641548 74.24269431 71.37612327 67.93321283 71.41339111 61.62365723 C71.45352734 55.17483327 71.50457568 48.72609654 71.5546875 42.27734375 C71.65126478 29.64329166 71.73609856 17.0091894 71.8125 4.375 C77.7547437 1.79472422 82.42662107 0.34532364 88.875 0.0625 C89.71160156 0.02511719 90.54820312 -0.01226563 91.41015625 -0.05078125 C94.86906771 0.56226159 95.7501426 1.50599684 97.8125 4.375 C98.41936548 7.80204572 98.3481516 11.20041581 98.31420898 14.67285156 C98.32231346 16.24451584 98.32231346 16.24451584 98.33058167 17.84793091 C98.34311147 21.32078109 98.32653542 24.79280831 98.30859375 28.265625 C98.30874878 30.68780562 98.31023838 33.10998648 98.31300354 35.53216553 C98.31438992 40.619862 98.30180017 45.70727743 98.27905273 50.79492188 C98.25084933 57.27725754 98.25335285 63.75911975 98.26614285 70.24148941 C98.27314713 75.25193222 98.26525386 80.26226828 98.25288582 85.27269745 C98.24840442 87.65980365 98.24800518 90.04692147 98.25195122 92.43402863 C98.2863925 131.64952217 98.2863925 131.64952217 85.77734375 146.84765625 C72.89487591 159.35604154 53.87462433 160.8221073 36.83129883 160.66040039 C21.32148801 160.31236744 6.47406888 158.53548585 -5.1875 147.375 C-19.67272216 131.53178826 -18.61395503 110.59584248 -18.48046875 90.5078125 C-18.47486408 88.01675677 -18.4705981 85.52569769 -18.46760559 83.03463745 C-18.45622544 76.52124687 -18.42681775 70.00806131 -18.39349365 63.49475098 C-18.36264464 56.8311605 -18.34906874 50.16754945 -18.33398438 43.50390625 C-18.30194094 30.46085072 -18.25141607 17.41793634 -18.1875 4.375 C-11.73837954 1.55822355 -6.91682294 0.81374388 0 0 Z " fill="#15191A" transform="translate(430.1875,1310.625)"/>
<path d="M0 0 C2.47490306 2.26213474 4.02495856 4.55254003 5.64453125 7.48046875 C6.14911865 8.38458496 6.65370605 9.28870117 7.17358398 10.22021484 C7.71442627 11.19941895 8.25526855 12.17862305 8.8125 13.1875 C13.43572805 21.46874556 18.13202419 29.69817516 22.9375 37.875 C27.80715578 46.17562681 32.56707665 54.53014639 37.25 62.9375 C41.42832972 70.43883883 45.65835243 77.89696963 50.04321289 85.27929688 C53.99905781 91.95612268 57.84409796 98.69558809 61.6875 105.4375 C66.93394517 114.63924521 72.19936291 123.82930146 77.5 133 C83.03241574 142.573738 88.53030591 152.16669369 94.01025391 161.77050781 C98.8171789 170.19367294 103.64765707 178.60289286 108.5 187 C114.02959779 196.56911449 119.52497979 206.15726817 125.00219727 215.75640869 C129.97828041 224.47609822 134.97943516 233.18083577 140 241.875 C140.62205322 242.95330078 141.24410645 244.03160156 141.88500977 245.14257812 C144.48788303 249.65389677 147.09334361 254.16353936 149.71484375 258.6640625 C150.45576867 259.94268544 151.19665817 261.22132891 151.9375 262.5 C152.54464844 263.5415625 153.15179687 264.583125 153.77734375 265.65625 C155 268 155 268 155 270 C143.45 270 131.9 270 120 270 C118.14375 266.7 116.2875 263.4 114.375 260 C109.71132439 251.73184843 104.98555448 243.50336132 100.1875 235.3125 C95.09231761 226.61354722 90.05575311 217.88277078 85.0625 209.125 C78.03417892 196.7996267 70.95759481 184.50277786 63.85888672 172.21777344 C60.73675395 166.81329355 57.61858796 161.40652588 54.5 156 C53.25001878 153.8333225 52.00001879 151.66665583 50.75 149.5 C38.25 127.83333333 25.75 106.16666667 13.25 84.5 C12.63036377 83.42596924 12.01072754 82.35193848 11.37231445 81.24536133 C10.13124746 79.09416776 8.89019907 76.94296345 7.64916992 74.79174805 C4.73501656 69.74037001 1.82068182 64.6890969 -1.09432983 59.63821411 C-2.12673478 57.84933082 -3.15907956 56.06041283 -4.19140625 54.27148438 C-5.48685948 52.02662364 -6.7824257 49.7818281 -8.078125 47.53710938 C-9.22326863 45.55261321 -10.36467699 43.56595459 -11.50146484 41.57666016 C-12.42047402 39.99646745 -13.36358369 38.42963386 -14.34619141 36.88818359 C-15.9354914 34.36392132 -16.99821059 32.56366337 -17.0078125 29.5390625 C-15.5896641 25.966208 -13.80239143 22.69648128 -11.875 19.375 C-11.47482666 18.67439453 -11.07465332 17.97378906 -10.66235352 17.25195312 C-7.28559497 11.38539706 -3.72459052 5.65275475 0 0 Z " fill="#FCFCFC" transform="translate(1035,432)"/>
<path d="M0 0 C1.28657249 0.00371613 1.28657249 0.00371613 2.59913635 0.00750732 C3.50169159 0.00239639 4.40424683 -0.00271454 5.33415222 -0.00798035 C8.3282274 -0.02192083 11.32207353 -0.02091622 14.31617737 -0.01861572 C16.39121588 -0.02250024 18.46625361 -0.0268344 20.54129028 -0.03160095 C24.89507116 -0.03907278 29.24877096 -0.03876495 33.60255432 -0.0335083 C39.18940862 -0.02771281 44.7759315 -0.04464204 50.36273098 -0.06785297 C54.64947458 -0.08256553 58.93613792 -0.08346539 63.2229023 -0.08034325 C65.28304259 -0.08085772 67.34318723 -0.08611897 69.40330315 -0.09615517 C72.28130162 -0.1084541 75.15864876 -0.10176728 78.03663635 -0.09014893 C78.89232712 -0.09779266 79.74801788 -0.1054364 80.62963867 -0.11331177 C86.45781488 -0.06115145 86.45781488 -0.06115145 88.60005283 1.67030048 C90.31677662 3.82785264 90.28363851 5.17140186 90.25758362 7.90716553 C90.26918518 9.10212646 90.26918518 9.10212646 90.28102112 10.32122803 C89.88258362 13.28216553 89.88258362 13.28216553 86.88258362 22.28216553 C63.78258362 22.28216553 40.68258362 22.28216553 16.88258362 22.28216553 C16.88258362 36.14216553 16.88258362 50.00216553 16.88258362 64.28216553 C21.25121643 64.24736084 25.61984924 64.21255615 30.12086487 64.17669678 C33.60247286 64.15740623 37.08406576 64.14113703 40.56569672 64.12691498 C44.24199126 64.11106752 47.91807861 64.08988772 51.59425354 64.05584717 C55.13447309 64.02327038 58.67449161 64.00531619 62.21484947 63.9975338 C64.22406017 63.98928628 66.2331899 63.96586415 68.24227905 63.942276 C70.07383797 63.94193611 70.07383797 63.94193611 71.94239807 63.94158936 C73.55789299 63.9315966 73.55789299 63.9315966 75.20602417 63.92140198 C77.88258362 64.28216553 77.88258362 64.28216553 79.73114014 65.60691833 C81.59599479 68.32011492 81.23983601 70.86216592 81.19508362 74.09466553 C81.19121643 75.29736084 81.18734924 76.50005615 81.18336487 77.73919678 C80.88258362 81.28216553 80.88258362 81.28216553 78.88258362 87.28216553 C58.42258362 87.28216553 37.96258362 87.28216553 16.88258362 87.28216553 C16.88258362 101.80216553 16.88258362 116.32216553 16.88258362 131.28216553 C21.81711487 131.23575928 26.75164612 131.18935303 31.83570862 131.14154053 C34.96203174 131.12110206 38.08827248 131.10184643 41.21461487 131.08685303 C46.17686573 131.06294218 51.13882134 131.03465752 56.10084534 130.98040771 C60.10143519 130.93694304 64.10170843 130.91302715 68.10251617 130.90265656 C69.62877639 130.89526621 71.1550193 130.88083441 72.68114471 130.8592453 C74.81930976 130.83020129 76.95616708 130.82620968 79.09449768 130.82806396 C80.31139282 130.81918152 81.52828796 130.81029907 82.78205872 130.80114746 C86.48863955 131.37618956 87.65898515 132.31407334 89.88258362 135.28216553 C90.37867737 138.05169678 90.37867737 138.05169678 90.32008362 141.09466553 C90.31879456 142.09111084 90.31750549 143.08755615 90.31617737 144.11419678 C89.78969364 147.96084814 88.46203644 150.74129044 86.88258362 154.28216553 C75.08675678 154.32847845 63.29095153 154.36402945 51.49505234 154.38578987 C46.01791424 154.39623305 40.54083829 154.41040209 35.06373596 154.43304443 C29.77936949 154.45475363 24.49506284 154.46673013 19.21065521 154.47192001 C17.19320483 154.47561922 15.17575778 154.48284271 13.15833282 154.49362564 C10.33554981 154.50811492 7.51301494 154.51014453 4.69020081 154.50921631 C3.43539665 154.52000214 3.43539665 154.52000214 2.15524292 154.53100586 C-1.86114556 154.51668718 -4.62481268 154.24343715 -8.11741638 152.28216553 C-8.16408599 132.75914653 -8.19938045 113.23613881 -8.22104073 93.71307564 C-8.23136417 84.64868432 -8.24544484 75.58432761 -8.26829529 66.5199585 C-8.28819654 58.62173403 -8.30112504 50.72353463 -8.30559337 42.82528579 C-8.3082063 38.64116368 -8.31436986 34.45711326 -8.3288765 30.27301407 C-8.34240892 26.33818169 -8.34664788 22.40345085 -8.34363174 18.46859741 C-8.34418386 17.02135543 -8.34818711 15.5741102 -8.35582733 14.12688828 C-8.36572018 12.15703511 -8.36220713 10.18712799 -8.35792542 8.21725464 C-8.359769 7.11294664 -8.36161259 6.00863865 -8.36351204 4.87086678 C-7.85479594 -0.48036138 -4.60156098 0.0417466 0 0 Z " fill="#141819" transform="translate(950.1174163818359,1313.7178344726563)"/>
<path d="M0 0 C8.12523276 4.96542002 9.22255811 16.99047957 11.69091797 25.6796875 C12.86114607 29.75585674 14.08850515 33.81471636 15.3125 37.875 C15.82169229 39.56898706 16.33080636 41.26299764 16.83984375 42.95703125 C17.09362793 43.80088379 17.34741211 44.64473633 17.60888672 45.51416016 C18.86619114 49.69636014 20.12045968 53.87947021 21.375 58.0625 C21.87498506 59.72917115 22.37498507 61.39583781 22.875 63.0625 C28.375 81.39583333 33.875 99.72916667 39.375 118.0625 C43.33660552 106.63710245 46.99335916 95.19129201 50.10620117 83.50488281 C52.73161005 73.65333207 55.60536765 63.87916868 58.48388672 54.09912109 C59.66635826 50.06964683 60.83450432 46.03607752 62.00268555 42.00244141 C62.86788667 39.02448357 63.74167159 36.04915855 64.6171875 33.07421875 C65.83976923 28.91812387 67.02567644 24.7533162 68.1953125 20.58203125 C68.79634464 18.49203491 69.39788988 16.40218604 70 14.3125 C70.26490234 13.34175537 70.52980469 12.37101074 70.80273438 11.37084961 C72.32491537 6.16835876 73.43613332 2.89806384 78.375 0.0625 C81.95648781 -1.13132927 84.97448526 -1.17953361 88.75 -1.25 C90.05710937 -1.28738281 91.36421875 -1.32476563 92.7109375 -1.36328125 C96.85399775 -0.88183821 98.43716603 0.18705247 101.375 3.0625 C100.68818625 6.90694558 99.64709474 10.51106759 98.4214325 14.21754456 C98.01354492 15.45551788 97.60565735 16.69349121 97.18540955 17.96897888 C96.73264876 19.33294092 96.2798111 20.69687745 95.8269043 22.06079102 C95.350273 23.50322276 94.87386884 24.94572958 94.39767456 26.38830566 C92.8358392 31.11577352 91.26766228 35.84112758 89.69921875 40.56640625 C89.15909132 42.19488638 88.61900473 43.82338006 88.07895851 45.45188713 C85.54265233 53.09887289 83.00347016 60.74489615 80.46074551 68.38975006 C77.52633643 77.21254666 74.60190221 86.03856816 71.68584698 94.86744744 C69.43009134 101.69499266 67.16515673 108.51944949 64.89329845 115.34165329 C63.53695592 119.41538431 62.1846212 123.49034414 60.84195518 127.56860542 C59.57939204 131.40279259 58.30549959 135.23302539 57.02280807 139.06052399 C56.55424763 140.46521304 56.0897882 141.87127777 55.62975883 143.2787838 C55.00080084 145.20101045 54.35555309 147.11788419 53.70951843 149.03443909 C53.35316157 150.10828637 52.99680471 151.18213366 52.62964916 152.28852177 C51.26622866 155.302989 49.94685832 156.99667111 47.375 159.0625 C44.1328125 159.5234375 44.1328125 159.5234375 40.5 159.4375 C39.30632813 159.42460938 38.11265625 159.41171875 36.8828125 159.3984375 C33.22190472 159.04783831 30.69360113 158.65988802 27.375 157.0625 C26.02999886 154.56171199 25.20313628 152.54726099 24.39013672 149.8737793 C24.13963184 149.12069048 23.88912697 148.36760166 23.63103104 147.59169197 C22.7915424 145.05095028 21.98630019 142.50057053 21.1796875 139.94921875 C20.5818742 138.12067002 19.98153451 136.29294563 19.37887573 134.46598816 C18.06564472 130.47661531 16.76479889 126.48346961 15.47106934 122.48773193 C13.31849884 115.86156959 11.09986977 109.25855896 8.86816406 102.65869141 C5.27614909 92.03359438 1.70244288 81.40260789 -1.85477829 70.76581001 C-3.90239785 64.64395684 -5.95359132 58.52335442 -8.01318359 52.40551758 C-10.0472527 46.36329575 -12.07258178 40.31821219 -14.09158707 34.27094078 C-14.8532325 31.99453824 -15.61794714 29.71916009 -16.38586044 27.44486427 C-17.44648906 24.3016797 -18.49582868 21.15494153 -19.54248047 18.00708008 C-19.85711243 17.08318481 -20.17174438 16.15928955 -20.49591064 15.20739746 C-21.9712997 10.73063846 -23.18302131 6.84058305 -22.625 2.0625 C-17.7914417 -3.60855602 -6.52911114 -1.81090441 0 0 Z " fill="#15191A" transform="translate(810.625,1311.9375)"/>
<path d="M0 0 C0.79744629 0.10924805 1.59489258 0.21849609 2.41650391 0.33105469 C7.66386281 1.18781224 11.40031057 2.87765294 15.875 5.75 C16.20159585 12.19664397 15.61677153 16.84464593 12.875 22.75 C10.12228936 24.12635532 8.17747989 23.65594964 5.125 23.375 C4.09890625 23.28476563 3.0728125 23.19453125 2.015625 23.1015625 C-1.125 22.75 -1.125 22.75 -3.81640625 22.2265625 C-8.64827458 21.53059091 -13.43667095 21.52521437 -18.3125 21.5 C-19.29025391 21.479375 -20.26800781 21.45875 -21.27539062 21.4375 C-29.38553417 21.39461755 -38.2083153 22.03363645 -44.75 27.3125 C-48.01071994 30.65902835 -48.31772867 32.36727821 -48.4375 36.9375 C-48.336663 42.10707682 -47.71811428 45.88454699 -44.125 49.75 C-36.31516145 56.97230941 -26.88701506 61.88682946 -17.57495117 66.88134766 C-10.82264332 70.55940129 -5.00153724 74.80707697 0.875 79.75 C1.74640625 80.4291748 2.6178125 81.10834961 3.515625 81.80810547 C10.54269459 87.59176767 15.92641601 96.89942225 17.875 105.75 C18.101875 106.678125 18.32875 107.60625 18.5625 108.5625 C19.76180756 120.79543714 19.05506474 132.61218082 11.5234375 142.7890625 C2.37241749 153.67487304 -11.31302333 157.53083349 -25.125 158.75 C-37.69349889 159.44444781 -50.34875074 159.384216 -62.8125 157.5 C-63.54702393 157.39091309 -64.28154785 157.28182617 -65.03833008 157.16943359 C-70.28251073 156.2383551 -74.44941784 154.28982241 -79.125 151.75 C-79.43789083 145.17929266 -78.90398141 139.7796248 -76.125 133.75 C-75.135 132.76 -75.135 132.76 -74.125 131.75 C-72.1640625 131.921875 -72.1640625 131.921875 -69.75 132.5 C-59.24582972 134.88548718 -49.22112192 136.0928081 -38.4375 136.0625 C-36.70016602 136.08666992 -36.70016602 136.08666992 -34.92773438 136.11132812 C-25.4479744 136.11671129 -17.58534342 135.01047321 -10.5 128.3515625 C-7.61100469 124.98653955 -7.2260818 121.65973621 -6.75 117.375 C-7.55943572 109.55045474 -11.39880737 104.77782017 -17.32421875 99.8125 C-22.96747106 95.65679955 -29.05532438 92.23749914 -35.125 88.75 C-51.58040468 79.23918961 -67.09712163 69.37752536 -74.125 50.75 C-76.56647752 37.64390899 -76.01799042 26.08785426 -68.80859375 14.6640625 C-61.84928203 5.5832512 -50.27803581 1.57657034 -39.4921875 -0.83984375 C-26.54427404 -2.41702578 -12.88591577 -1.85659079 0 0 Z " fill="#161A1B" transform="translate(1293.125,1312.25)"/>
<path d="M0 0 C3.77016416 1.25672139 4.00711403 2.29562331 5.86328125 5.72265625 C6.68795898 7.2240918 6.68795898 7.2240918 7.52929688 8.75585938 C8.11775391 9.84705078 8.70621094 10.93824219 9.3125 12.0625 C10.57750312 14.3669426 11.84448002 16.67030266 13.11328125 18.97265625 C13.43660431 19.5612442 13.75992737 20.14983215 14.0930481 20.7562561 C17.29170935 26.56581725 20.63434272 32.28614329 24 38 C29.37335762 47.14829713 34.59078477 56.37406639 39.75 65.64453125 C44.30824377 73.81477622 49.00377909 81.89777021 53.74121094 89.96508789 C58.00176033 97.23964778 62.14818919 104.57240396 66.25 111.9375 C70.42908472 119.44031124 74.66085884 126.89928021 79.04541016 134.28369141 C82.97596034 140.91954224 86.80329117 147.61353025 90.625 154.3125 C90.9627948 154.90457245 91.3005896 155.4966449 91.64862061 156.10665894 C93.38909167 159.15782771 95.12877793 162.20944311 96.86816406 165.26123047 C100.06773932 170.87398864 103.27447326 176.48265652 106.48065186 182.09164429 C108.6872785 185.95215089 110.89354129 189.81286348 113.09765625 193.67480469 C114.47613337 196.0843091 115.85890293 198.49103386 117.24609375 200.89550781 C117.6169812 201.54004913 117.98786865 202.18459045 118.36999512 202.84866333 C119.09066487 204.10086806 119.81302028 205.3521045 120.53723145 206.6022644 C123 210.88747861 123 210.88747861 123 212 C111.78 212 100.56 212 89 212 C70.19140625 179.3984375 70.19140625 179.3984375 68.34179688 176.19238281 C67.10489272 174.04845933 65.86791246 171.90457974 64.63085938 169.76074219 C61.49041883 164.31807441 58.35131366 158.87464455 55.21484375 153.4296875 C49.16944841 142.93767906 43.10889781 132.45518324 37 122 C28.97732489 108.26944812 21.04141741 94.48922034 13.10449219 80.70898438 C6.15577537 68.64638469 -0.80505937 56.59110607 -7.8125 44.5625 C-8.40554932 43.54333496 -8.99859863 42.52416992 -9.60961914 41.47412109 C-10.43127563 40.06573975 -10.43127563 40.06573975 -11.26953125 38.62890625 C-11.75010986 37.80463135 -12.23068848 36.98035645 -12.72583008 36.13110352 C-13.76699718 34.38970715 -14.87456125 32.68815812 -16 31 C-15.68025146 26.84804789 -13.97905256 23.86935167 -11.875 20.33203125 C-11.25109375 19.27435547 -10.6271875 18.21667969 -9.984375 17.12695312 C-9.32953125 16.03318359 -8.6746875 14.93941406 -8 13.8125 C-6.70804108 11.63168352 -5.41636004 9.4507024 -4.125 7.26953125 C-3.55007813 6.30635986 -2.97515625 5.34318848 -2.3828125 4.35083008 C-1.54445135 2.92558651 -0.73948207 1.47896414 0 0 Z " fill="#FCFCFC" transform="translate(1001,490)"/>
<path d="M0 0 C4.3240016 1.22652476 5.42762484 3.19439464 7.625 6.94433594 C10.10879153 11.56087175 12.37601431 16.27659154 14.61871338 21.0140686 C16.13888323 24.22407058 17.67530375 27.42628042 19.2109375 30.62890625 C19.52376678 31.28205307 19.83659607 31.93519989 20.15890503 32.60813904 C24.87061667 42.42507573 29.78088104 52.14358052 34.67675781 61.86962891 C36.45770443 65.40983533 38.22941807 68.95460031 40 72.5 C40.30067383 71.86835937 40.60134766 71.23671875 40.91113281 70.5859375 C47.04785624 57.70948683 53.25753197 44.87778023 59.69262695 32.14746094 C62.06605879 27.43585206 64.38659362 22.71334633 66.578125 17.9140625 C66.97878174 17.04056152 67.37943848 16.16706055 67.79223633 15.26708984 C68.5302572 13.64504867 69.25752888 12.01805201 69.97143555 10.38525391 C72.2415675 5.39866275 74.53338059 1.86498139 79.875 -0.23828125 C82.92633935 -0.61408959 85.92590492 -0.67121772 89 -0.6875 C90.216875 -0.70167969 91.43375 -0.71585938 92.6875 -0.73046875 C95.7719563 -0.51586625 97.42673876 -0.12758774 100 1.5 C100.76694408 7.73094048 98.08634261 12.11159728 95.3203125 17.48046875 C94.59012405 18.93166862 94.59012405 18.93166862 93.84518433 20.41218567 C92.28295552 23.50975228 90.70411961 26.59851619 89.125 29.6875 C88.10049819 31.71495733 87.07705039 33.74294764 86.0546875 35.77148438 C83.06292775 41.69469375 80.03575089 47.59924531 77 53.5 C76.53993561 54.39887939 76.07987122 55.29775879 75.60586548 56.22387695 C67.57923938 71.8839185 67.57923938 71.8839185 63.21484375 78.0390625 C51.22955987 95.90547689 52.71839041 115.39558609 53.04467773 136.19775391 C53.06079102 137.4353949 53.0769043 138.67303589 53.09350586 139.94818115 C53.13197378 142.30609692 53.19125068 144.66378897 53.27392578 147.02056885 C53.29559814 148.07838562 53.31727051 149.13620239 53.33959961 150.22607422 C53.36992783 151.15136932 53.40025604 152.07666443 53.4315033 153.02999878 C52.85705339 156.31825171 51.59691417 157.47250241 49 159.5 C41.67544921 160.63303039 34.45582732 160.25338798 28 156.5 C27 155.5 27 155.5 26.96963501 153.50947571 C27.01139862 152.63147812 27.05316223 151.75348053 27.09619141 150.84887695 C28.47275005 116.92611185 26.39433501 92.13789682 8.08752441 63.26080322 C5.62101754 59.26729908 3.55213508 55.06107798 1.4375 50.875 C0.69190189 49.46970513 -0.05668963 48.06599345 -0.80859375 46.6640625 C-3.77524148 41.07488204 -6.57065427 35.39950712 -9.37084961 29.72558594 C-11.31011012 25.81222094 -13.28425279 21.93504314 -15.40625 18.1171875 C-15.78120605 17.43946289 -16.15616211 16.76173828 -16.54248047 16.06347656 C-17.55105358 14.25741647 -18.57569017 12.46035278 -19.6015625 10.6640625 C-21.10307263 7.26679098 -21.53901908 5.16744353 -21 1.5 C-15.22709615 -2.34860257 -6.70266304 -0.94785134 0 0 Z " fill="#161A1A" transform="translate(1556,1311.5)"/>
<path d="M0 0 C0.92259613 -0.00571014 1.84519226 -0.01142029 2.79574585 -0.01730347 C3.81601868 -0.01842133 4.8362915 -0.01953918 5.88748169 -0.02069092 C7.48981155 -0.02813828 7.48981155 -0.02813828 9.12451172 -0.03573608 C12.67587923 -0.0504009 16.22720209 -0.05716678 19.77859497 -0.06268311 C22.23620608 -0.06843087 24.69381716 -0.07418865 27.15142822 -0.07995605 C32.31149506 -0.09047827 37.47154625 -0.09631298 42.63162231 -0.09979248 C49.25539422 -0.10528062 55.87896091 -0.12931053 62.50266838 -0.15776443 C67.58118297 -0.17635438 72.65964777 -0.18159446 77.73819351 -0.18312836 C80.18071744 -0.18616352 82.62324032 -0.19422087 85.06573105 -0.20731354 C88.47782922 -0.22429823 91.88942133 -0.22251223 95.30154419 -0.21600342 C96.31776855 -0.2252182 97.33399292 -0.23443298 98.38101196 -0.243927 C99.30924774 -0.23835785 100.23748352 -0.2327887 101.19384766 -0.22705078 C102.00096128 -0.22851734 102.80807491 -0.2299839 103.63964653 -0.2314949 C106.24878831 0.23410699 107.13208707 1.05613901 108.72390747 3.14044189 C109.12234497 5.52325439 109.12234497 5.52325439 109.09890747 8.26544189 C109.11050903 9.59962158 109.11050903 9.59962158 109.12234497 10.96075439 C108.72390747 14.14044189 108.72390747 14.14044189 105.72390747 23.14044189 C91.86390747 23.14044189 78.00390747 23.14044189 63.72390747 23.14044189 C63.75532837 29.0161499 63.75532837 29.0161499 63.78738403 35.01055908 C63.85358293 47.93462532 63.89801805 60.85868887 63.93115616 73.78287888 C63.95178704 81.62090441 63.9799175 89.4587694 64.02566528 97.29669189 C64.06551718 104.12773026 64.09133646 110.95865236 64.10026145 117.78980374 C64.10547907 121.40736611 64.11775271 125.02459587 64.1468277 128.6420517 C64.17901234 132.67910049 64.17986796 136.71556996 64.17800903 140.75274658 C64.19239014 141.95396149 64.20677124 143.15517639 64.22158813 144.39279175 C64.21608948 145.49213043 64.21059082 146.59146912 64.20492554 147.72412109 C64.20861271 148.67909863 64.21229988 149.63407616 64.21609879 150.6179924 C63.57566552 153.90017256 62.31376487 155.09086743 59.72390747 157.14044189 C52.56049291 158.45701736 45.29852644 157.15445962 38.72390747 154.14044189 C37.72390747 153.14044189 37.72390747 153.14044189 37.60085964 150.98713589 C37.60178144 150.02939298 37.60270323 149.07165007 37.60365295 148.08488464 C37.60227829 146.98966995 37.60090363 145.89445526 37.5994873 144.76605225 C37.60488022 142.94805115 37.60488022 142.94805115 37.61038208 141.09332275 C37.61023605 139.82521255 37.61009003 138.55710236 37.60993958 137.25056458 C37.60965162 133.76311768 37.61554803 130.27570489 37.62251353 126.78826594 C37.6287474 123.14740466 37.6293509 119.50654268 37.63053894 115.86567688 C37.63365216 108.96667218 37.64186542 102.06768324 37.65188843 95.1686855 C37.66304986 87.31633505 37.66856009 79.46398386 37.67358387 71.61162746 C37.68404804 55.45455636 37.7016473 39.29750114 37.72390747 23.14044189 C36.46731323 23.16138916 35.21071899 23.18233643 33.91604614 23.20391846 C29.25893526 23.27625689 24.60187414 23.32221924 19.94436646 23.36016846 C17.92767998 23.38029798 15.91105196 23.40760426 13.89456177 23.44219971 C10.99768665 23.49065912 8.10158233 23.51339688 5.20437622 23.53106689 C4.30116135 23.55171204 3.39794647 23.57235718 2.46736145 23.59362793 C-3.77909885 23.59587288 -3.77909885 23.59587288 -6.34591675 21.24371338 C-9.06538721 15.09456955 -7.17224366 7.34099451 -5.27609253 1.14044189 C-3.70990073 -0.4257499 -2.17736034 0.00803229 0 0 Z " fill="#15191A" transform="translate(1408.2760925292969,1313.8595581054688)"/>
<path d="M0 0 C3.13576152 2.88840272 5.15369248 5.71098562 7.1796875 9.453125 C7.77136719 10.53464844 8.36304688 11.61617187 8.97265625 12.73046875 C9.28219238 13.3032959 9.59172852 13.87612305 9.91064453 14.46630859 C11.56850477 17.53272046 13.24969776 20.58629746 14.9296875 23.640625 C15.27143005 24.26296021 15.61317261 24.88529541 15.965271 25.52648926 C19.20664781 31.41218254 22.58719977 37.21218731 26 43 C30.96170429 51.43167267 35.77365996 59.93423204 40.5 68.5 C45.80206842 78.10816063 51.23960957 87.62179088 56.80078125 97.08203125 C61.5558031 105.18912931 66.15208282 113.3783588 70.71948242 121.59228516 C75.60301699 130.35073066 80.63752157 139.01465052 85.734375 147.65039062 C86.29382812 148.60107422 86.85328125 149.55175781 87.4296875 150.53125 C87.92710449 151.37236328 88.42452148 152.21347656 88.93701172 153.08007812 C90 155 90 155 90 156 C85.16258928 156.32338703 80.33154061 156.55803078 75.48583984 156.71411133 C73.84182169 156.77918099 72.19854747 156.86768697 70.55712891 156.98071289 C59.78638384 157.70334029 59.78638384 157.70334029 55 156 C51.03341933 152.24006134 49.17127904 147.9563838 47 143 C45.8472503 140.97089745 44.66942294 138.95580037 43.46484375 136.95703125 C42.28716522 134.90994449 41.1114422 132.86173171 39.9375 130.8125 C38.9595355 129.11168147 37.98156809 127.41086461 37.00343323 125.71014404 C35.99905965 123.96320818 34.9955222 122.21579442 33.9921875 120.46826172 C30.81315882 114.93379096 27.62608873 109.40396711 24.4375 103.875 C23.81673584 102.79839111 23.19597168 101.72178223 22.55639648 100.61254883 C18.39194633 93.39601436 14.20326164 86.19398695 10 79 C4.98066488 70.40697267 -0.02030804 61.80354805 -5 53.1875 C-5.61101563 52.13240234 -6.22203125 51.07730469 -6.8515625 49.99023438 C-8.01583698 47.97326988 -9.16632942 45.9482741 -10.30151367 43.91479492 C-11.96514861 40.96550798 -11.96514861 40.96550798 -13.97387695 38.1887207 C-15.80485365 35.43136718 -17.13955931 33.19924361 -18 30 C-16.95924704 25.66302399 -14.73215154 22.43071598 -12.1875 18.8125 C-11.58228516 17.87986328 -10.97707031 16.94722656 -10.35351562 15.98632812 C-9.16392351 14.16023366 -7.95585148 12.34602069 -6.72802734 10.54541016 C-4.38278042 7.09082632 -2.19208015 3.55325753 0 0 Z " fill="#FCFCFC" transform="translate(969,546)"/>
<path d="M0 0 C0.98613281 -0.00773437 1.97226562 -0.01546875 2.98828125 -0.0234375 C6.19844882 0.45042226 7.39860018 1.0871303 9.6875 3.375 C10.18807125 6.14083862 10.18807125 6.14083862 10.18870544 9.56201172 C10.19853958 10.85757996 10.20837372 12.15314819 10.21850586 13.48797607 C10.2091335 14.9268825 10.19935416 16.36578632 10.18920898 17.8046875 C10.19299129 19.31748965 10.19849059 20.83028835 10.20558167 22.34307861 C10.21956538 26.45468825 10.20834632 30.56588079 10.19187045 34.67746735 C10.1780399 38.97622522 10.18447775 43.27495839 10.18800354 47.57373047 C10.19070725 54.79336281 10.17721631 62.01282905 10.15405273 69.23242188 C10.12744193 77.5843595 10.12569527 85.93601936 10.1374411 94.28798485 C10.14821296 102.31574438 10.14203649 110.34340325 10.12788582 118.37115479 C10.12212085 121.79057184 10.12221269 125.20991534 10.12695122 128.6293335 C10.13171667 132.65458825 10.12163752 136.67953808 10.09999657 140.7047348 C10.09442259 142.18379437 10.093969 143.6628832 10.09894943 145.14194489 C10.10488563 147.15729952 10.09058708 149.1726838 10.07518005 151.18798828 C10.07275016 152.3169754 10.07032026 153.44596252 10.06781673 154.60916138 C9.6875 157.375 9.6875 157.375 8.35540867 159.23678589 C5.6706477 161.06892027 3.19774463 160.77074213 0 160.75 C-1.17949219 160.75773437 -2.35898437 160.76546875 -3.57421875 160.7734375 C-7.3125 160.375 -7.3125 160.375 -15.3125 157.375 C-15.3125 106.555 -15.3125 55.735 -15.3125 3.375 C-5.0667044 -0.0402652 -5.0667044 -0.0402652 0 0 Z " fill="#131718" transform="translate(747.3125,1310.625)"/>
<path d="M0 0 C0.98613281 -0.00773437 1.97226563 -0.01546875 2.98828125 -0.0234375 C6.19849822 0.45042955 7.39832125 1.08736804 9.6875 3.375 C10.19086456 6.14083862 10.19086456 6.14083862 10.19543457 9.56201172 C10.21235352 11.50536407 10.21235352 11.50536407 10.22961426 13.48797607 C10.22183675 14.92688211 10.21364406 16.36578594 10.20507812 17.8046875 C10.21049724 19.3174914 10.21761872 20.83029002 10.22631836 22.34307861 C10.24457998 26.45467271 10.23747268 30.56586609 10.22480202 34.67746735 C10.21468895 38.97623287 10.22406297 43.27496363 10.23034668 47.57373047 C10.23762805 54.79335707 10.22802262 62.0128201 10.20898438 69.23242188 C10.18721462 77.58440954 10.19426565 85.93600665 10.21629 94.28798485 C10.23443013 101.45324743 10.23700914 108.6183923 10.22653532 115.78367043 C10.22029272 120.06562326 10.21948568 124.3473924 10.23268127 128.6293335 C10.2442191 132.65465363 10.23625248 136.67946928 10.21310425 140.7047348 C10.207806 142.1837963 10.20935 143.66290011 10.21815491 145.14194489 C10.22904809 147.15727747 10.21297977 149.17270263 10.19543457 151.18798828 C10.19392647 152.3169754 10.19241837 153.44596252 10.19086456 154.60916138 C9.6875 157.375 9.6875 157.375 7.8403244 159.23678589 C4.93494593 160.77288088 2.71276529 160.77328388 -0.5625 160.75 C-1.64015625 160.75773437 -2.7178125 160.76546875 -3.828125 160.7734375 C-7.3125 160.375 -7.3125 160.375 -15.3125 157.375 C-15.3125 106.555 -15.3125 55.735 -15.3125 3.375 C-5.0667044 -0.0402652 -5.0667044 -0.0402652 0 0 Z " fill="#131718" transform="translate(1362.3125,1310.625)"/>
<path d="M0 0 C2.17475346 2.17475346 2.41509411 2.97307723 3.078125 5.875 C3.26624756 6.68163086 3.45437012 7.48826172 3.64819336 8.31933594 C3.84678955 9.20395508 4.04538574 10.08857422 4.25 11 C4.46470947 11.92844727 4.67941895 12.85689453 4.90063477 13.81347656 C5.60708286 16.87416104 6.30356669 19.93702267 7 23 C7.97657798 27.25059705 8.95725482 31.50024734 9.9375 35.75 C10.18854492 36.84030518 10.43958984 37.93061035 10.69824219 39.05395508 C14.51805841 55.62149556 18.47488611 72.1419307 22.80932617 88.58276367 C24.5488425 95.20513286 26.21491903 101.84194481 27.8125 108.5 C28.0194751 109.35432617 28.2264502 110.20865234 28.43969727 111.08886719 C28.72671509 112.29784668 28.72671509 112.29784668 29.01953125 113.53125 C29.18557861 114.22798828 29.35162598 114.92472656 29.52270508 115.64257812 C30.14932854 118.73755312 30.55342353 121.87396471 31 125 C10.54 125 -9.92 125 -31 125 C-29.87704357 116.01634857 -29.87704357 116.01634857 -28.65234375 111.69140625 C-28.38083496 110.71365234 -28.10932617 109.73589844 -27.82958984 108.72851562 C-27.5352002 107.68373047 -27.24081055 106.63894531 -26.9375 105.5625 C-23.68036752 93.76372121 -20.74287048 81.90932857 -17.92944336 69.99829102 C-16.10242281 62.30399433 -14.10185159 54.68082639 -11.95500183 47.0696106 C-9.3342593 37.72179219 -7.02044997 28.29788375 -4.6875 18.875 C-4.22874011 17.02989209 -3.76975675 15.18483972 -3.31054688 13.33984375 C-2.20446774 8.89386189 -1.10136732 4.44715131 0 0 Z " fill="#FCFCFC" transform="translate(965,991)"/>
<path d="M0 0 C2.75717382 2.45751459 4.32369527 5.12260882 6.08203125 8.35546875 C6.67701416 9.44037598 7.27199707 10.5252832 7.88500977 11.64306641 C8.3554924 12.50850067 8.3554924 12.50850067 8.83547974 13.39141846 C10.50842077 16.4668291 12.19921702 19.53237333 13.890625 22.59765625 C14.23525284 23.22267029 14.57988068 23.84768433 14.93495178 24.49163818 C18.21630828 30.42509742 21.62310997 36.28185089 25.0625 42.125 C30.47500285 51.33129898 35.73660381 60.61258481 40.93041992 69.94384766 C45.13565661 77.48943543 49.42693178 84.98026173 53.80151367 92.42895508 C57 97.89757027 57 97.89757027 57 99 C52.03867837 99.37350696 47.08563722 99.64398215 42.11352539 99.82397461 C40.42750589 99.89900562 38.74245009 100.00109767 37.05981445 100.1315918 C23.57550583 101.15040623 23.57550583 101.15040623 19.4380188 97.6958313 C16.55349168 94.17886247 14.71388496 90.17909543 12.91177368 86.0295105 C11.53768042 82.97092616 9.82268773 80.13529299 8.11328125 77.25390625 C6.50650592 74.43091726 4.90321071 71.60600319 3.30303955 68.77926636 C-0.4545349 62.14462172 -4.24798509 55.54338367 -8.21484375 49.03125 C-8.87331299 47.93997803 -9.53178223 46.84870605 -10.21020508 45.72436523 C-11.4619356 43.65740591 -12.72816451 41.59913937 -14.01049805 39.55102539 C-14.56648682 38.62797607 -15.12247559 37.70492676 -15.6953125 36.75390625 C-16.19047363 35.95283447 -16.68563477 35.1517627 -17.19580078 34.32641602 C-18 32 -18 32 -17.34326172 29.55493164 C-15.88812641 26.78721244 -14.39499947 24.06458863 -12.8125 21.3671875 C-12.19632813 20.31402344 -11.58015625 19.26085937 -10.9453125 18.17578125 C-10.30335938 17.08652344 -9.66140625 15.99726562 -9 14.875 C-8.35804688 13.77800781 -7.71609375 12.68101562 -7.0546875 11.55078125 C-2.32955995 3.49433992 -2.32955995 3.49433992 0 0 Z " fill="#FBFBFB" transform="translate(936,603)"/>
<path d="M0 0 C10.6115625 -0.12375 10.6115625 -0.12375 21.4375 -0.25 C24.76026001 -0.30462402 24.76026001 -0.30462402 28.15014648 -0.36035156 C29.93211909 -0.37204855 31.71410249 -0.38223797 33.49609375 -0.390625 C34.40008911 -0.41108887 35.30408447 -0.43155273 36.23547363 -0.45263672 C42.51872289 -0.45604089 47.59784671 0.67281405 53 4 C57.90430353 10.13037941 57.21409882 17.26460396 57.25 24.75 C57.270625 25.80960938 57.29125 26.86921875 57.3125 27.9609375 C57.34910953 35.33775768 56.75348509 41.26312737 52.25 47.375 C46.45537761 51.56000506 39.76195237 51.27385197 32.91015625 51.1953125 C32.07190308 51.19329834 31.2336499 51.19128418 30.36999512 51.18920898 C27.26744031 51.17882081 24.1649641 51.15089875 21.0625 51.125 C14.111875 51.08375 7.16125 51.0425 0 51 C0 34.17 0 17.34 0 0 Z " fill="#FDFEFE" transform="translate(1102,1337)"/>
<path d="M0 0 C0.66 0 1.32 0 2 0 C2.41773682 0.72477539 2.83547363 1.44955078 3.26586914 2.19628906 C4.85172315 4.94740768 6.43785856 7.69836382 8.02416992 10.44921875 C9.03390074 12.20040015 10.04332207 13.95175998 11.05273438 15.703125 C11.70693359 16.8375 12.36113281 17.971875 13.03515625 19.140625 C14.01572998 20.8431543 14.01572998 20.8431543 15.01611328 22.58007812 C16.35225979 24.88339344 17.69619903 27.1789431 19.05810547 29.46679688 C19.6976416 30.54509766 20.33717773 31.62339844 20.99609375 32.734375 C21.57415771 33.70084961 22.15222168 34.66732422 22.74780273 35.66308594 C24 38 24 38 24 40 C8.49 40 -7.02 40 -23 40 C-21.43701937 36.09254843 -19.88866127 32.95257631 -17.734375 29.39453125 C-17.09113281 28.32783203 -16.44789063 27.26113281 -15.78515625 26.16210938 C-15.11355469 25.05673828 -14.44195313 23.95136719 -13.75 22.8125 C-12.76580078 21.18344727 -12.76580078 21.18344727 -11.76171875 19.52148438 C-10.46487899 17.37512434 -9.16481255 15.23071014 -7.86132812 13.08837891 C-6.6387431 11.05982426 -5.43366532 9.02059457 -4.24804688 6.97021484 C-3.71759766 6.05578613 -3.18714844 5.14135742 -2.640625 4.19921875 C-2.17688477 3.38670654 -1.71314453 2.57419434 -1.23535156 1.73706055 C-0.62385254 0.87721558 -0.62385254 0.87721558 0 0 Z " fill="#F8F8F8" transform="translate(902,662)"/>
</svg>
